
<svg width="22" height="15" viewBox="0 0 22 15" fill="none" xmlns="http://www.w3.org/2000/svg">
<path d="M5.89339 1.26342C5.89339 0.707114 6.36696 0.256104 6.95108 0.256104H20.701C21.2851 0.256104 21.7586 0.707114 21.7586 1.26342C21.7586 1.81973 21.2851 2.27074 20.701 2.27074H6.95108C6.36696 2.27074 5.89339 1.81969 5.89339 1.26342ZM20.701 6.3H1.66266C1.07854 6.3 0.60498 6.75105 0.60498 7.30732C0.60498 7.86363 1.07854 8.31464 1.66266 8.31464H20.701C21.2851 8.31464 21.7586 7.86363 21.7586 7.30732C21.7586 6.75105 21.2851 6.3 20.701 6.3ZM20.701 12.3439H11.1818C10.5977 12.3439 10.1241 12.7949 10.1241 13.3512C10.1241 13.9075 10.5977 14.3585 11.1818 14.3585H20.701C21.2851 14.3585 21.7586 13.9075 21.7586 13.3512C21.7586 12.7949 21.2851 12.3439 20.701 12.3439Z" fill="#EAC599"/>
</svg>
