<svg width="16" height="17" viewBox="0 0 16 17" fill="none" xmlns="http://www.w3.org/2000/svg">
<path d="M14.0133 1.15132L0.55122 14.6134C0.138183 15.0265 0.122266 15.6803 0.515606 16.0736C0.908974 16.467 1.56274 16.451 1.97578 16.038L15.4379 2.57588C15.8509 2.16284 15.8669 1.50907 15.4735 1.1157C15.0802 0.722363 14.4264 0.738281 14.0133 1.15132Z" fill="#FFC734"/>
<path d="M1.97589 1.15132L15.438 14.6134C15.851 15.0265 15.867 15.6803 15.4736 16.0736C15.0802 16.467 14.4265 16.451 14.0134 16.038L0.551333 2.57588C0.138296 2.16284 0.12235 1.50907 0.515718 1.1157C0.909058 0.722363 1.56286 0.738281 1.97589 1.15132Z" fill="#FFC734"/>
</svg>
