<svg width="19" height="20" viewBox="0 0 19 20" fill="none" xmlns="http://www.w3.org/2000/svg">
<path d="M17.5 9.0683C17.0399 9.0683 16.6667 8.69507 16.6667 8.23502C16.6667 5.89752 15.7567 3.70087 14.1042 2.04742C13.7784 1.72165 13.7784 1.19507 14.1042 0.869141C14.4299 0.543365 14.9567 0.543365 15.2824 0.869141C17.2501 2.83661 18.3333 5.45258 18.3333 8.23502C18.3333 8.69507 17.9601 9.0683 17.5 9.0683Z" fill="url(#paint0_linear_1302_133)"/>
<path d="M0.833282 9.0683C0.373383 9.0683 0 8.69507 0 8.23502C0 5.45258 1.08337 2.83661 3.05084 0.869141C3.37662 0.543365 3.90335 0.543365 4.22913 0.869141C4.55505 1.19507 4.55505 1.72165 4.22913 2.04742C2.5766 3.69995 1.66672 5.89752 1.66672 8.23502C1.66672 8.69507 1.29333 9.0683 0.833282 9.0683Z" fill="url(#paint1_linear_1302_133)"/>
<path d="M16.9826 14.0942C15.7225 13.0292 15 11.4725 15 9.8233V7.5C15 4.56757 12.8217 2.14005 10 1.7334V0.833282C10 0.372467 9.62662 0 9.16672 0C8.70667 0 8.33328 0.372467 8.33328 0.833282V1.7334C5.51086 2.14005 3.33328 4.56757 3.33328 7.5V9.8233C3.33328 11.4725 2.61078 13.0292 1.34338 14.1008C1.01913 14.3784 0.833282 14.7816 0.833282 15.2083C0.833282 16.0126 1.48743 16.6667 2.29172 16.6667H16.0417C16.8459 16.6667 17.5 16.0126 17.5 15.2083C17.5 14.7816 17.3141 14.3784 16.9826 14.0942Z" fill="url(#paint2_linear_1302_133)"/>
<path d="M9.16672 20C10.6758 20 11.9383 18.9241 12.2284 17.5H6.10504C6.39496 18.9241 7.65747 20 9.16672 20Z" fill="url(#paint3_linear_1302_133)"/>
<defs>
<linearGradient id="paint0_linear_1302_133" x1="9.16664" y1="0" x2="9.16664" y2="20" gradientUnits="userSpaceOnUse">
<stop stop-color="#FFF2C9"/>
<stop offset="1" stop-color="#FFB800"/>
</linearGradient>
<linearGradient id="paint1_linear_1302_133" x1="9.16664" y1="0" x2="9.16664" y2="20" gradientUnits="userSpaceOnUse">
<stop stop-color="#FFF2C9"/>
<stop offset="1" stop-color="#FFB800"/>
</linearGradient>
<linearGradient id="paint2_linear_1302_133" x1="9.16664" y1="0" x2="9.16664" y2="20" gradientUnits="userSpaceOnUse">
<stop stop-color="#FFF2C9"/>
<stop offset="1" stop-color="#FFB800"/>
</linearGradient>
<linearGradient id="paint3_linear_1302_133" x1="9.16664" y1="0" x2="9.16664" y2="20" gradientUnits="userSpaceOnUse">
<stop stop-color="#FFF2C9"/>
<stop offset="1" stop-color="#FFB800"/>
</linearGradient>
</defs>
</svg>
