<svg width="25" height="19" viewBox="0 0 25 19" fill="none" xmlns="http://www.w3.org/2000/svg">
<path d="M4.18193 1.99212C5.71161 1.30151 7.35195 0.792677 9.06706 0.501223C9.09828 0.495596 9.1295 0.509663 9.14558 0.537753C9.35656 0.906971 9.59024 1.38859 9.75388 1.76717C11.5986 1.49542 13.4338 1.49542 15.2407 1.76717C15.4043 1.3802 15.6465 0.906971 15.8584 0.537753C15.8745 0.510586 15.9057 0.496518 15.9369 0.501223C17.6511 0.791709 19.2914 1.30054 20.8221 1.99212C20.8353 1.99775 20.8467 2.00711 20.8542 2.01929C23.9656 6.59312 24.818 11.0546 24.3998 15.4606C24.398 15.4822 24.3856 15.5028 24.3686 15.5159C22.3158 16.9993 20.3273 17.8998 18.3757 18.4967C18.3445 18.5061 18.3114 18.4949 18.2916 18.4696C17.8299 17.8492 17.4184 17.1952 17.0656 16.5073C17.0448 16.4671 17.0647 16.4193 17.1072 16.4033C17.7599 16.1597 18.3815 15.8626 18.9794 15.5253C19.0267 15.4981 19.0305 15.4316 18.9869 15.3997C18.8611 15.307 18.7352 15.2104 18.6151 15.113C18.5933 15.0952 18.5631 15.0914 18.5375 15.1026C14.6098 16.8672 10.3575 16.8672 6.47609 15.1026C6.45055 15.0905 6.42027 15.0942 6.39758 15.112C6.27739 15.2095 6.15158 15.3069 6.02483 15.3997C5.98133 15.4315 5.98419 15.4981 6.03144 15.5253C6.62933 15.8692 7.25084 16.1596 7.90452 16.4023C7.94708 16.4183 7.96601 16.467 7.94516 16.5073C7.58473 17.1941 7.17322 17.8482 6.72012 18.4686C6.70119 18.4948 6.66715 18.5061 6.63594 18.4967C4.67492 17.8998 2.68639 16.9992 0.633587 15.5159C0.615587 15.5028 0.604242 15.4831 0.602367 15.4615C0.101929 10.3676 1.44054 5.94274 4.15081 2.02016C4.15737 2.00711 4.16871 1.99775 4.18193 1.99212ZM16.4789 12.7778C17.6615 12.7778 18.6359 11.7096 18.6359 10.3976C18.6359 9.08568 17.6804 8.01746 16.4789 8.01746C15.2681 8.01746 14.3031 9.09509 14.3221 10.3976C14.3221 11.7096 15.2776 12.7778 16.4789 12.7778ZM8.50424 12.7778C9.68671 12.7778 10.6611 11.7096 10.6611 10.3976C10.6611 9.08568 9.70564 8.01746 8.50424 8.01746C7.29336 8.01746 6.32844 9.09509 6.34733 10.3976C6.34733 11.7096 7.29331 12.7778 8.50424 12.7778Z" fill="white"/>
</svg>
