
<svg width="25" height="22" viewBox="0 0 25 22" fill="none" xmlns="http://www.w3.org/2000/svg">
<path d="M12.9587 15.4601C12.2859 15.4601 11.7219 16.0241 11.7219 16.6969C11.7219 17.3697 12.2859 17.9337 12.9587 17.9337C13.6068 17.9337 14.1955 17.3697 14.1658 16.7266C14.1955 16.0191 13.6365 15.4601 12.9587 15.4601Z" fill="#FF5252"/>
<path d="M24.4066 19.8433C25.1833 18.5026 25.1882 16.9047 24.4165 15.5689L16.6691 2.15204C15.9023 0.801451 14.5171 0 12.9636 0C11.4102 0 10.025 0.806398 9.25817 2.1471L1.50092 15.5788C0.729153 16.9294 0.7341 18.5373 1.51576 19.878C2.28753 21.2038 3.6678 22.0003 5.21134 22.0003H20.6863C22.2347 22.0003 23.6249 21.1939 24.4066 19.8433ZM22.7245 18.8737C22.2941 19.6158 21.5322 20.0561 20.6813 20.0561H5.20639C4.36536 20.0561 3.60844 19.6256 3.18792 18.8984C2.76246 18.1613 2.75752 17.2807 3.18298 16.5386L10.9402 3.11181C11.3607 2.37467 12.1127 1.93931 12.9636 1.93931C13.8096 1.93931 14.5665 2.37962 14.9871 3.11675L22.7394 16.5435C23.1549 17.2658 23.15 18.1365 22.7245 18.8737Z" fill="#FF5252"/>
<path d="M12.652 6.7777C12.0632 6.94591 11.6972 7.48021 11.6972 8.12829C11.7268 8.51912 11.7516 8.9149 11.7813 9.30573C11.8654 10.7948 11.9495 12.2543 12.0336 13.7434C12.0632 14.248 12.4541 14.6141 12.9587 14.6141C13.4633 14.6141 13.8591 14.2233 13.8838 13.7137C13.8838 13.407 13.8838 13.125 13.9135 12.8133C13.9679 11.8585 14.0273 10.9037 14.0817 9.94887C14.1114 9.33047 14.1658 8.71206 14.1955 8.09366C14.1955 7.87104 14.1658 7.67315 14.0817 7.47526C13.8294 6.92117 13.2407 6.63918 12.652 6.7777Z" fill="#FF5252"/>
</svg>
