<?xml version="1.0" encoding="utf-8"?>
<!-- Generator: Adobe Illustrator 26.3.1, SVG Export Plug-In . SVG Version: 6.00 Build 0)  -->
<svg version="1.1" id="Слой_1" xmlns="http://www.w3.org/2000/svg" xmlns:xlink="http://www.w3.org/1999/xlink" x="0px" y="0px"
	 viewBox="0 0 172.9 79.7" style="enable-background:new 0 0 172.9 79.7;" xml:space="preserve">
<style type="text/css">
	.st0{fill:#FFC734;}
</style>
<path class="st0" d="M0.1,8.2C0,8.2,0,8.2,0.1,8.2l0.3,64.3c0,0,0,0.1,0.1,0c0,0,0,0,0.1,0l5.9,5.7c0.9,0.9,2.2,1.4,3.5,1.4
	l153.5-0.9c1.3,0,2.6-0.5,3.5-1.5l5.8-5.8c0,0,0,0,0.1,0c0,0,0.1,0,0.1,0l-0.4-64.3c0,0,0-0.1-0.1,0c0,0,0,0-0.1,0l-5.9-5.7
	C165.5,0.5,164.3,0,163,0L9.4,0.9C8.1,1,6.8,1.5,5.9,2.4L0.1,8.2C0.1,8.2,0.1,8.2,0.1,8.2z"/>
</svg>
