<svg width="14" height="15" viewBox="0 0 14 15" fill="none" xmlns="http://www.w3.org/2000/svg">
<path d="M8.64576 2.83988L0.942759 10.5515C0.904005 10.5904 0.876023 10.6396 0.862697 10.6924L0.00889326 14.1229C-0.0166465 14.2262 0.0136681 14.336 0.0889547 14.4114C0.145919 14.4684 0.223538 14.5 0.302933 14.5C0.327251 14.5 0.352125 14.497 0.376332 14.4909L3.80332 13.6361C3.85673 13.6227 3.90526 13.5948 3.94401 13.556L11.6477 5.84495L8.64576 2.83988Z" fill="#635C4C"/>
<path d="M13.5561 1.78843L12.6986 0.93006C12.1255 0.356369 11.1267 0.356925 10.5542 0.93006L9.5039 1.98151L12.5057 4.98647L13.5561 3.93502C13.8423 3.64856 14 3.26729 14 2.86178C14 2.45627 13.8423 2.075 13.5561 1.78843Z" fill="#635C4C"/>
</svg>
