<svg width="38" height="38" viewBox="0 0 38 38" fill="none" xmlns="http://www.w3.org/2000/svg">
<path fill-rule="evenodd" clip-rule="evenodd" d="M19 34.8333C27.7445 34.8333 34.8333 27.7445 34.8333 19C34.8333 10.2555 27.7445 3.16667 19 3.16667C10.2555 3.16667 3.16667 10.2555 3.16667 19C3.16667 27.7445 10.2555 34.8333 19 34.8333ZM19 38C29.4934 38 38 29.4934 38 19C38 8.50659 29.4934 0 19 0C8.50659 0 0 8.50659 0 19C0 29.4934 8.50659 38 19 38Z" fill="#FF7A00"/>
<path d="M13.8677 25.3266C13.5572 25.3449 13.2518 25.2404 13.0159 25.0353C12.5507 24.5619 12.5507 23.7973 13.0159 23.3239L23.2022 13.0191C23.686 12.5611 24.4452 12.5865 24.898 13.076C25.3074 13.5186 25.3313 14.199 24.9538 14.6698L14.7076 25.0353C14.4747 25.2375 14.1742 25.3417 13.8677 25.3266Z" fill="#FF7A00"/>
<path d="M24.042 25.3266C23.7273 25.3253 23.4256 25.1989 23.2022 24.9746L13.0158 14.6698C12.5849 14.1606 12.6435 13.3944 13.1467 12.9584C13.5959 12.5692 14.2584 12.5692 14.7076 12.9584L24.9538 23.2632C25.4376 23.7213 25.4626 24.4894 25.0097 24.9788C24.9917 24.9983 24.9731 25.0171 24.9538 25.0353C24.703 25.256 24.3728 25.3615 24.042 25.3266Z" fill="#FF7A00"/>
</svg>
