<svg width="38" height="38" viewBox="0 0 38 38" fill="none" xmlns="http://www.w3.org/2000/svg">
<path d="M18.1236 25.1198C17.9875 25.2568 17.802 25.3333 17.6092 25.3333C17.4164 25.3333 17.2308 25.2568 17.0948 25.1198L12.9868 21.0042C12.5604 20.5771 12.5604 19.8848 12.9868 19.4584L13.5012 18.9432C13.9276 18.5161 14.618 18.5161 15.0444 18.9432L17.6092 21.5122L24.5396 14.5703C24.9659 14.1432 25.6572 14.1432 26.0828 14.5703L26.5972 15.0856C27.0236 15.5127 27.0236 16.205 26.5972 16.6314L18.1236 25.1198Z" fill="#69C79F"/>
<path fill-rule="evenodd" clip-rule="evenodd" d="M19 34.8333C27.7445 34.8333 34.8333 27.7445 34.8333 19C34.8333 10.2555 27.7445 3.16667 19 3.16667C10.2555 3.16667 3.16667 10.2555 3.16667 19C3.16667 27.7445 10.2555 34.8333 19 34.8333ZM19 38C29.4934 38 38 29.4934 38 19C38 8.50659 29.4934 0 19 0C8.50659 0 0 8.50659 0 19C0 29.4934 8.50659 38 19 38Z" fill="#69C79F"/>
</svg>
