<svg width="14" height="14" viewBox="0 0 14 14" fill="none" xmlns="http://www.w3.org/2000/svg">
<path d="M5.57855 8.45427L5.44041 8.3852L5.16413 6.93471L5.19866 6.77354L6.45345 6.0483C6.62997 5.93318 6.77578 5.81039 6.8909 5.67992C7.00602 5.54178 7.06358 5.38445 7.06358 5.20793C7.06358 4.83188 6.87171 4.54409 6.48799 4.34455C6.10426 4.14501 5.58623 4.02989 4.93389 3.99919L4.8418 3.83803L5.26773 2.88255L5.44041 2.81348C6.00065 2.82883 6.50334 2.92476 6.94846 3.10127C7.39358 3.27779 7.74661 3.5157 8.00755 3.815C8.26848 4.10664 8.39895 4.43664 8.39895 4.80502C8.39895 5.07363 8.3529 5.3077 8.26081 5.50724C8.17639 5.6991 8.04976 5.87946 7.88092 6.0483C7.71208 6.20946 7.51254 6.37063 7.2823 6.53179C7.05207 6.69296 6.79113 6.87331 6.4995 7.07285L6.46496 7.16494L6.63764 8.12042L6.58008 8.24705L5.57855 8.45427ZM6.016 11.0444C5.73972 11.0444 5.52867 10.9638 5.38285 10.8027C5.24471 10.6415 5.17564 10.4381 5.17564 10.1926C5.17564 9.91627 5.25622 9.69371 5.41739 9.52487C5.58623 9.34835 5.81263 9.26009 6.09658 9.26009C6.36519 9.26009 6.57241 9.34068 6.71822 9.50184C6.86404 9.65533 6.93695 9.85871 6.93695 10.112C6.93695 10.3806 6.85253 10.6031 6.68369 10.7797C6.52252 10.9562 6.29996 11.0444 6.016 11.0444Z" fill="#C1B088"/>
<circle cx="6.62061" cy="6.92896" r="6.02197" stroke="#C1B088"/>
</svg>
