<svg width="14" height="15" viewBox="0 0 14 15" fill="none" xmlns="http://www.w3.org/2000/svg">
    <path  d="M7.03585 0.948608C3.26291 0.948608 0.204102 4.00742 0.204102 7.78036C0.204102 11.5533 3.26291 14.6121 7.03585 14.6121C10.8088 14.6121 13.8676 11.5533 13.8676 7.78036C13.8676 4.00742 10.8095 0.948608 7.03585 0.948608ZM7.03585 13.1146C4.08973 13.1146 1.7016 10.7265 1.7016 7.78036C1.7016 4.83423 4.0904 2.44611 7.03585 2.44611C9.98129 2.44611 12.3701 4.83423 12.3701 7.78036C12.3701 10.7265 9.98197 13.1146 7.03585 13.1146Z" fill="url(#paint0_linear_3170_1677)" />
    <path d="M7.92851 4.03186C4.64501 4.08345 2.49244 5.61082 2.66418 6.67522C4.27573 5.85655 6.4283 6.27946 7.86402 6.1661C8.33038 6.13012 8.53063 5.96856 8.57679 5.76695C8.61209 5.60403 8.52317 5.4669 8.36839 5.43703C8.16882 5.40038 7.99436 5.60199 8.10229 5.80971C8.01065 5.85248 7.89864 5.87284 7.79139 5.88031C7.74794 5.78595 7.74115 5.65969 7.7588 5.57552C7.82737 5.26936 8.11519 5.06843 8.43356 5.13903C8.80013 5.22049 8.94811 5.53954 8.88227 5.83551C8.81031 6.15931 8.51977 6.40165 7.92512 6.45732C7.25172 6.51977 6.67946 6.46139 6.01693 6.46003C6.10042 7.09406 5.78409 7.58689 5.10729 7.73827C3.49847 8.0933 1.88964 8.48023 0.294386 8.89296C0.675889 11.2207 2.23313 13.1526 4.33682 14.0582C6.27352 13.3977 8.07514 12.6503 8.91893 12.0645C9.70433 11.518 10.2623 10.7577 10.4748 9.67837C10.7171 8.39198 10.6248 6.42134 10.0044 5.14921C9.61608 4.35702 9.07098 4.01353 7.92851 4.03118V4.03186ZM7.26937 4.75277C7.08269 4.75142 6.83967 4.7582 6.66453 4.78604C6.69508 4.84713 6.70662 4.91705 6.69033 4.98561C6.65095 5.15396 6.48668 5.25918 6.31833 5.22252C6.15269 5.18519 6.04679 5.0182 6.08413 4.85256C6.13301 4.62108 6.41744 4.46699 7.35761 4.43983C7.3291 4.54777 7.29924 4.65163 7.26869 4.75277H7.26937Z" fill="url(#paint1_linear_3170_1677)" />
    <defs>
        <linearGradient id="paint0_linear_3170_1677" x1="7.03585" y1="0.948608" x2="7.03585" y2="14.6121" gradientUnits="userSpaceOnUse">
            <stop stop-color="#CCCFFF" />
            <stop offset="1" stop-color="#8689AF" />
        </linearGradient>
        <linearGradient id="paint1_linear_3170_1677" x1="7.03585" y1="0.948608" x2="7.03585" y2="14.6121" gradientUnits="userSpaceOnUse">
            <stop stop-color="#CCCFFF" />
            <stop offset="1" stop-color="#8689AF" />
        </linearGradient>
    </defs>
</svg>