<?xml version="1.0" encoding="utf-8"?>
<!-- Generator: Adobe Illustrator 26.3.1, SVG Export Plug-In . SVG Version: 6.00 Build 0)  -->
<svg preserveAspectRatio="none" version="1.1" id="Слой_1" xmlns="http://www.w3.org/2000/svg" xmlns:xlink="http://www.w3.org/1999/xlink" x="0px" y="0px"
	 viewBox="0 0 10 25" style="enable-background:new 0 0 10 25;" xml:space="preserve">
<path fill="#004313" d="M-194.5,3.7C-194.5,3.7-194.5,3.7-194.5,3.7l0,17.6c0,0,0,0,0,0c0,0,0,0,0,0l2.6,2.6c0.7,0.7,1.6,1.1,2.6,1.1
	l194,0c1,0,1.9-0.4,2.6-1.1l2.6-2.6c0,0,0,0,0,0c0,0,0,0,0,0V3.7c0,0,0,0,0,0c0,0,0,0,0,0L7.3,1.1C6.6,0.4,5.7,0,4.7,0l-194,0
	c-1,0-1.9,0.4-2.6,1.1L-194.5,3.7C-194.5,3.7-194.5,3.7-194.5,3.7z"/>
</svg>
