<svg width="611" height="24" viewBox="0 0 611 24" fill="none" xmlns="http://www.w3.org/2000/svg">
<path fill-rule="evenodd" clip-rule="evenodd" d="M570.778 21.75H9.34382V20.25H570.778V21.75Z" fill="#FFE6A1"/>
<path d="M7.84301 24L0 20.8492L7.84301 17.6985L10.8748 20.8492L7.84301 24Z" fill="#FFE6A1"/>
<path d="M604.589 21.0934C604.629 21.0778 604.669 21.0615 604.71 21.0452C607.199 20.018 607.388 15.8746 606.505 14.5907C605.621 13.3068 604.683 12.6827 603.541 13.2304C602.398 13.7781 600.916 16.291 602.547 17.8977L603.526 17.3218C603.526 17.3218 601.99 16.0891 602.887 14.8913C603.785 13.6927 605.585 15.059 605.788 17.6276C605.992 20.1962 603.073 21.0214 601.135 19.2544C600.514 18.6889 599.751 17.1207 598.837 15.4709C600.051 14.2419 600.693 12.3747 599.907 10.4681C599.752 10.0926 599.589 9.73855 599.417 9.40458C600.431 9.45802 601.269 9.6584 601.427 9.85358C601.671 10.1549 601.591 10.3671 601.427 10.667C602.126 10.6551 602.617 10.3768 602.591 9.5827C603.934 10.1542 604.657 9.66879 604.659 9.04019C604.661 8.41159 604.32 8.32921 604.32 8.32921C604.32 8.32921 603.696 8.85094 603.45 8.59267C603.168 8.2973 602.662 8.3871 602.662 8.3871C602.662 8.3871 603.117 7.81193 602.461 7.4134C602.254 8.12438 601.419 8.65353 598.905 8.50955C597.576 6.44489 595.784 5.466 593.285 5.78661C593.167 5.80145 593.048 5.82 592.927 5.84078C592.918 5.82297 592.908 5.80516 592.897 5.78661C592.891 5.77399 592.884 5.76063 592.878 5.74802C592.746 4.96802 592.75 4.30751 593.026 3.75386C594.007 1.7842 595.143 3.14827 596 2.53377C596 2.53377 592.935 0.783043 592.125 3.39318C592.079 3.53864 592.045 3.68559 592.017 3.83476C591.042 1.62538 589.924 -0.472672 587.211 0.0935879C583.748 0.817183 583.633 3.23584 584.145 4.72311C584.393 5.44448 585.254 6.5013 587.081 6.32912C588.687 6.17772 589.345 5.3621 589.152 4.47449C588.945 3.52157 588.239 3.57204 587.568 3.50821C586.94 3.44884 586.819 2.6451 587.381 2.56643C587.083 2.35863 586.33 2.67033 586.374 3.12452C586.419 3.57872 586.838 4.03069 587.34 4.02401C588.369 4.01139 588.797 4.91162 587.599 5.37917C586.214 5.9202 584.827 5.04446 584.755 3.48149C584.683 1.92669 587.122 0.243502 589.06 1.17044C590.88 2.04099 591.486 4.70233 591.912 6.07753C588.962 6.93916 585.693 9.40607 585.918 13.6474C586.059 16.3014 586.944 18.3801 588.809 19.8169C587.836 20.309 587.021 20.5413 586.78 20.5761C586.09 20.6741 585.582 20.9613 585.343 21.3124C585.104 21.6634 585.445 22.8761 586.047 23C585.732 21.8868 586.807 21.7101 587.025 21.6649C587.605 21.5454 588.687 21.1587 589.841 20.4915C591.349 21.3242 593.333 21.8519 595.87 22.0508C598.478 22.2556 599.69 21.4682 601.523 21.5565C603.224 21.6389 606.483 22.6222 608.02 22.1859C610.544 21.4704 610.458 20.3854 610.864 19.2039C608.954 21.4348 606.824 21.4615 604.588 21.0927L604.589 21.0934ZM598.317 9.40681C598.404 9.56785 598.487 9.73632 598.564 9.9137C599.61 12.339 599.218 13.7551 598.317 14.5551C597.419 13.03 596.391 11.5806 595.225 10.9364C595.571 9.89737 596.947 9.49141 598.317 9.40681ZM594.19 11.8937C594.985 12.1045 596 12.9046 597.424 15.1065C596.676 15.4234 595.82 15.5154 595.134 15.4998C594.782 15.4917 594.438 15.462 594.108 15.41C594.189 15.0612 594.242 14.6976 594.259 14.3183C594.299 13.4582 594.267 12.6515 594.19 11.8937ZM597.727 8.52143C596.08 8.72403 595.075 9.71925 593.973 10.3768C593.722 9.01421 593.369 7.83791 593.114 6.82636C594.82 6.61262 596.538 7.07349 597.727 8.52143ZM593.198 13.9925C593.168 14.3933 593.101 14.7725 593.006 15.131C592.55 14.9625 592.153 14.7354 591.842 14.4453C591.546 13.4337 591.86 12.3806 592.709 12.063C592.866 12.0043 593.029 11.9442 593.203 11.8997C593.249 12.5624 593.255 13.2593 593.198 13.9925ZM588.245 9.58121C589.199 8.33589 590.696 7.38371 592.282 6.98295C592.542 8.11992 592.89 9.37861 593.087 10.7976C593.076 10.8013 593.066 10.805 593.055 10.8087C591.909 11.185 591.355 12.1928 591.108 12.8467C590.93 11.4856 590.9 11.2384 590.462 11.0091C589.997 10.7649 589.333 11.1739 589.175 11.8945C590.817 11.3475 589.997 13.2838 590.65 14.567C591.04 15.3329 591.537 15.9318 592.542 16.3407C591.907 17.5823 590.91 18.507 589.919 19.1705C587.228 17.4591 585.884 12.6596 588.245 9.58121ZM590.982 19.7472C592.045 18.9642 593.05 17.9415 593.661 16.6695C594.151 16.7719 594.721 16.8483 595.392 16.8981C596.304 16.9656 597.245 16.6687 598.053 16.1218C599.375 18.2755 600.379 19.7004 601.314 20.5145C598.142 20.2526 595.392 21.8935 590.982 19.7479L590.982 19.7472ZM595.917 2.43655C595.942 2.46475 595.962 2.48924 595.977 2.50631C595.956 2.48182 595.936 2.45807 595.917 2.43655ZM595.757 2.24953C595.782 2.27847 595.811 2.31261 595.847 2.35417C595.816 2.31781 595.786 2.28293 595.757 2.24953ZM595.757 2.24953C595.746 2.23617 595.735 2.22355 595.726 2.21242L595.757 2.24953Z" fill="#FFE6A1"/>
<path d="M569.026 21.0934C568.986 21.0778 568.945 21.0615 568.904 21.0452C566.416 20.018 566.227 15.8746 567.11 14.5907C567.993 13.3068 568.932 12.6827 570.074 13.2304C571.216 13.7781 572.699 16.291 571.068 17.8977L570.089 17.3218C570.089 17.3218 571.625 16.0891 570.727 14.8913C569.83 13.6927 568.03 15.059 567.826 17.6276C567.623 20.1962 570.541 21.0214 572.48 19.2544C573.1 18.6889 573.863 17.1207 574.778 15.4709C573.564 14.2419 572.921 12.3747 573.708 10.4681C573.863 10.0926 574.026 9.73855 574.198 9.40458C573.183 9.45802 572.346 9.6584 572.188 9.85358C571.943 10.1549 572.024 10.3671 572.188 10.667C571.489 10.6551 570.998 10.3768 571.024 9.5827C569.681 10.1542 568.958 9.66879 568.956 9.04019C568.954 8.41159 569.295 8.32921 569.295 8.32921C569.295 8.32921 569.919 8.85094 570.165 8.59267C570.446 8.2973 570.953 8.3871 570.953 8.3871C570.953 8.3871 570.498 7.81193 571.154 7.4134C571.361 8.12438 572.195 8.65353 574.71 8.50955C576.039 6.44489 577.831 5.466 580.33 5.78661C580.448 5.80145 580.567 5.82 580.687 5.84078C580.697 5.82297 580.707 5.80516 580.718 5.78661C580.724 5.77399 580.731 5.76063 580.737 5.74802C580.869 4.96802 580.864 4.30751 580.588 3.75386C579.607 1.7842 578.472 3.14827 577.615 2.53378C577.615 2.53378 580.68 0.783043 581.49 3.39318C581.535 3.53864 581.57 3.68559 581.598 3.83476C582.573 1.62538 583.691 -0.472672 586.404 0.0935879C589.867 0.817183 589.982 3.23584 589.47 4.72311C589.221 5.44448 588.361 6.5013 586.533 6.32912C584.928 6.17772 584.269 5.3621 584.463 4.47449C584.67 3.52157 585.376 3.57204 586.047 3.50821C586.675 3.44884 586.796 2.64509 586.234 2.56643C586.531 2.35863 587.285 2.67033 587.24 3.12452C587.196 3.57872 586.777 4.03068 586.274 4.024C585.245 4.01139 584.818 4.91161 586.016 5.37917C587.4 5.92019 588.788 5.04446 588.86 3.48149C588.931 1.92669 586.492 0.243502 584.555 1.17044C582.735 2.04099 582.129 4.70233 581.703 6.07753C584.653 6.93916 587.921 9.40606 587.697 13.6474C587.556 16.3014 586.671 18.3801 584.806 19.8169C585.778 20.309 586.594 20.5413 586.835 20.5761C587.525 20.6741 588.033 20.9613 588.272 21.3123C588.51 21.6634 588.17 22.8761 587.568 23C587.882 21.8868 586.807 21.7101 586.589 21.6649C586.01 21.5454 584.927 21.1587 583.773 20.4915C582.266 21.3242 580.282 21.8519 577.745 22.0508C575.137 22.2556 573.924 21.4682 572.092 21.5565C570.391 21.6389 567.132 22.6222 565.595 22.1859C563.071 21.4704 563.157 20.3854 562.751 19.2039C564.661 21.4348 566.791 21.4615 569.027 21.0927L569.026 21.0934ZM575.297 9.40681C575.21 9.56785 575.128 9.73632 575.051 9.9137C574.005 12.339 574.396 13.7551 575.297 14.5551C576.195 13.03 577.224 11.5806 578.39 10.9364C578.043 9.89737 576.668 9.49141 575.297 9.40681ZM579.425 11.8937C578.63 12.1045 577.615 12.9046 576.191 15.1065C576.939 15.4234 577.795 15.5154 578.481 15.4998C578.833 15.4917 579.177 15.462 579.507 15.41C579.426 15.0612 579.372 14.6976 579.355 14.3183C579.316 13.4582 579.348 12.6515 579.425 11.8937ZM575.888 8.52143C577.534 8.72403 578.539 9.71925 579.642 10.3768C579.893 9.01421 580.246 7.83791 580.501 6.82636C578.795 6.61262 577.077 7.07349 575.888 8.52143ZM580.416 13.9925C580.447 14.3933 580.514 14.7725 580.609 15.131C581.065 14.9625 581.462 14.7354 581.773 14.4453C582.069 13.4337 581.755 12.3806 580.906 12.063C580.749 12.0043 580.586 11.9442 580.412 11.8997C580.365 12.5624 580.36 13.2593 580.416 13.9925ZM585.37 9.58121C584.415 8.33589 582.919 7.38371 581.332 6.98295C581.073 8.11992 580.725 9.37861 580.528 10.7976C580.539 10.8013 580.549 10.805 580.559 10.8087C581.705 11.185 582.26 12.1928 582.507 12.8467C582.685 11.4856 582.714 11.2384 583.153 11.0091C583.618 10.7649 584.281 11.1739 584.44 11.8945C582.798 11.3475 583.618 13.2838 582.965 14.567C582.575 15.3329 582.077 15.9318 581.073 16.3407C581.707 17.5823 582.705 18.507 583.696 19.1705C586.386 17.4591 587.73 12.6596 585.37 9.58121ZM582.632 19.7472C581.569 18.9642 580.565 17.9415 579.954 16.6695C579.464 16.7719 578.893 16.8483 578.222 16.8981C577.311 16.9656 576.37 16.6687 575.561 16.1218C574.24 18.2755 573.236 19.7004 572.301 20.5145C575.473 20.2526 578.223 21.8935 582.633 19.7479L582.632 19.7472ZM577.697 2.43655C577.673 2.46475 577.653 2.48925 577.638 2.50632C577.659 2.48182 577.679 2.45807 577.697 2.43655ZM577.857 2.24953C577.832 2.27847 577.803 2.31261 577.768 2.35418C577.799 2.31781 577.829 2.28293 577.857 2.24953ZM577.857 2.24953C577.869 2.23617 577.88 2.22356 577.889 2.21243L577.857 2.24953Z" fill="#FFE6A1"/>
</svg>
