<svg preserveAspectRatio="none" width="853" height="24" viewBox="0 0 853 24" fill="none" xmlns="http://www.w3.org/2000/svg">
<path fill-rule="evenodd" clip-rule="evenodd" d="M410.778 21.75H9.34382V20.25H410.778V21.75Z" fill="#FFE6A1"/>
<path d="M7.84301 24L0 20.8492L7.84301 17.6985L10.8748 20.8492L7.84301 24Z" fill="#FFE6A1"/>
<path fill-rule="evenodd" clip-rule="evenodd" d="M444.128 21.75H843.656V20.25H444.128V21.75Z" fill="#FFE6A1"/>
<path d="M845.157 24L853 20.8492L845.157 17.6985L842.125 20.8492L845.157 24Z" fill="#FFE6A1"/>
<path d="M444.589 21.0934C444.629 21.0778 444.669 21.0615 444.71 21.0452C447.199 20.018 447.388 15.8746 446.505 14.5907C445.621 13.3068 444.683 12.6827 443.541 13.2304C442.398 13.7781 440.916 16.291 442.547 17.8977L443.526 17.3218C443.526 17.3218 441.99 16.0891 442.887 14.8913C443.785 13.6927 445.585 15.059 445.788 17.6276C445.992 20.1962 443.073 21.0214 441.135 19.2544C440.514 18.6889 439.751 17.1207 438.837 15.4709C440.051 14.2419 440.693 12.3747 439.907 10.4681C439.752 10.0926 439.589 9.73855 439.417 9.40458C440.431 9.45802 441.269 9.6584 441.427 9.85358C441.671 10.1549 441.591 10.3671 441.427 10.667C442.126 10.6551 442.617 10.3768 442.591 9.5827C443.934 10.1542 444.657 9.66879 444.659 9.04019C444.661 8.41159 444.32 8.32921 444.32 8.32921C444.32 8.32921 443.696 8.85094 443.45 8.59267C443.168 8.2973 442.662 8.3871 442.662 8.3871C442.662 8.3871 443.117 7.81193 442.461 7.4134C442.254 8.12438 441.419 8.65353 438.905 8.50955C437.576 6.44489 435.784 5.466 433.285 5.78661C433.167 5.80145 433.048 5.82 432.927 5.84078C432.918 5.82297 432.908 5.80516 432.897 5.78661C432.891 5.77399 432.884 5.76063 432.878 5.74802C432.746 4.96802 432.75 4.30751 433.026 3.75386C434.007 1.7842 435.143 3.14827 436 2.53377C436 2.53377 432.935 0.783043 432.125 3.39318C432.079 3.53864 432.045 3.68559 432.017 3.83476C431.042 1.62538 429.924 -0.472672 427.211 0.0935879C423.748 0.817183 423.633 3.23584 424.145 4.72311C424.393 5.44448 425.254 6.5013 427.081 6.32912C428.687 6.17772 429.345 5.3621 429.152 4.47449C428.945 3.52157 428.239 3.57204 427.568 3.50821C426.94 3.44884 426.819 2.6451 427.381 2.56643C427.083 2.35863 426.33 2.67033 426.374 3.12452C426.419 3.57872 426.838 4.03069 427.34 4.02401C428.369 4.01139 428.797 4.91162 427.599 5.37917C426.214 5.9202 424.827 5.04446 424.755 3.48149C424.683 1.92669 427.122 0.243502 429.06 1.17044C430.88 2.04099 431.486 4.70233 431.912 6.07753C428.962 6.93916 425.693 9.40607 425.918 13.6474C426.059 16.3014 426.944 18.3801 428.809 19.8169C427.836 20.309 427.021 20.5413 426.78 20.5761C426.09 20.6741 425.582 20.9613 425.343 21.3124C425.105 21.6634 425.445 22.8761 426.047 23C425.732 21.8868 426.807 21.7101 427.025 21.6649C427.605 21.5454 428.687 21.1587 429.841 20.4915C431.349 21.3242 433.333 21.8519 435.87 22.0508C438.478 22.2556 439.69 21.4682 441.523 21.5565C443.224 21.6389 446.483 22.6222 448.02 22.1859C450.544 21.4704 450.458 20.3854 450.864 19.2039C448.954 21.4348 446.824 21.4615 444.588 21.0927L444.589 21.0934ZM438.317 9.40681C438.405 9.56785 438.487 9.73632 438.564 9.9137C439.61 12.339 439.218 13.7551 438.317 14.5551C437.419 13.03 436.391 11.5806 435.225 10.9364C435.571 9.89737 436.947 9.49141 438.317 9.40681ZM434.19 11.8937C434.985 12.1045 436 12.9046 437.424 15.1065C436.676 15.4234 435.82 15.5154 435.134 15.4998C434.782 15.4917 434.438 15.462 434.108 15.41C434.189 15.0612 434.242 14.6976 434.259 14.3183C434.299 13.4582 434.267 12.6515 434.19 11.8937ZM437.727 8.52143C436.08 8.72403 435.075 9.71925 433.973 10.3768C433.722 9.01421 433.369 7.83791 433.114 6.82636C434.82 6.61262 436.538 7.07349 437.727 8.52143ZM433.198 13.9925C433.168 14.3933 433.101 14.7725 433.006 15.131C432.55 14.9625 432.153 14.7354 431.842 14.4453C431.546 13.4337 431.86 12.3806 432.709 12.063C432.866 12.0043 433.029 11.9442 433.203 11.8997C433.249 12.5624 433.255 13.2593 433.198 13.9925ZM428.245 9.58121C429.2 8.33589 430.696 7.38371 432.282 6.98295C432.542 8.11992 432.89 9.37861 433.087 10.7976C433.076 10.8013 433.066 10.805 433.055 10.8087C431.909 11.185 431.355 12.1928 431.108 12.8467C430.93 11.4856 430.9 11.2384 430.462 11.0091C429.997 10.7649 429.333 11.1739 429.175 11.8945C430.817 11.3475 429.997 13.2838 430.65 14.567C431.04 15.3329 431.537 15.9318 432.542 16.3407C431.907 17.5823 430.91 18.507 429.919 19.1705C427.228 17.4591 425.884 12.6596 428.245 9.58121ZM430.982 19.7472C432.045 18.9642 433.05 17.9415 433.661 16.6695C434.151 16.7719 434.721 16.8483 435.392 16.8981C436.304 16.9656 437.245 16.6687 438.053 16.1218C439.375 18.2755 440.379 19.7004 441.314 20.5145C438.142 20.2526 435.392 21.8935 430.982 19.7479L430.982 19.7472ZM435.917 2.43655C435.942 2.46475 435.962 2.48924 435.977 2.50631C435.956 2.48182 435.936 2.45807 435.917 2.43655ZM435.757 2.24953C435.782 2.27847 435.811 2.31261 435.847 2.35417C435.816 2.31781 435.786 2.28293 435.757 2.24953ZM435.757 2.24953C435.746 2.23617 435.735 2.22355 435.726 2.21242L435.757 2.24953Z" fill="#FFE6A1"/>
<path d="M409.026 21.0934C408.986 21.0778 408.945 21.0615 408.904 21.0452C406.416 20.018 406.227 15.8746 407.11 14.5907C407.993 13.3068 408.932 12.6827 410.074 13.2304C411.216 13.7781 412.699 16.291 411.068 17.8977L410.089 17.3218C410.089 17.3218 411.625 16.0891 410.727 14.8913C409.83 13.6927 408.03 15.059 407.826 17.6276C407.623 20.1962 410.541 21.0214 412.48 19.2544C413.1 18.6889 413.863 17.1207 414.778 15.4709C413.564 14.2419 412.921 12.3747 413.708 10.4681C413.863 10.0926 414.026 9.73855 414.197 9.40458C413.183 9.45802 412.346 9.6584 412.188 9.85358C411.943 10.1549 412.024 10.3671 412.188 10.667C411.489 10.6551 410.998 10.3768 411.024 9.5827C409.681 10.1542 408.958 9.66879 408.956 9.04019C408.954 8.41159 409.295 8.32921 409.295 8.32921C409.295 8.32921 409.919 8.85094 410.165 8.59267C410.446 8.2973 410.953 8.3871 410.953 8.3871C410.953 8.3871 410.498 7.81193 411.154 7.4134C411.361 8.12438 412.195 8.65353 414.71 8.50955C416.039 6.44489 417.831 5.466 420.33 5.78661C420.448 5.80145 420.567 5.82 420.687 5.84078C420.697 5.82297 420.707 5.80516 420.718 5.78661C420.724 5.77399 420.731 5.76063 420.737 5.74802C420.869 4.96802 420.864 4.30751 420.588 3.75386C419.607 1.7842 418.472 3.14827 417.615 2.53378C417.615 2.53378 420.68 0.783043 421.49 3.39318C421.535 3.53864 421.57 3.68559 421.598 3.83476C422.573 1.62538 423.691 -0.472672 426.404 0.0935879C429.867 0.817183 429.981 3.23584 429.47 4.72311C429.221 5.44448 428.361 6.5013 426.533 6.32912C424.928 6.17772 424.269 5.3621 424.462 4.47449C424.67 3.52157 425.376 3.57204 426.047 3.50821C426.675 3.44884 426.796 2.64509 426.234 2.56643C426.531 2.35863 427.285 2.67033 427.24 3.12452C427.196 3.57872 426.777 4.03068 426.274 4.024C425.245 4.01139 424.818 4.91161 426.016 5.37917C427.4 5.92019 428.788 5.04446 428.86 3.48149C428.931 1.92669 426.492 0.243502 424.555 1.17044C422.735 2.04099 422.129 4.70233 421.703 6.07753C424.653 6.93916 427.921 9.40606 427.697 13.6474C427.556 16.3014 426.671 18.3801 424.806 19.8169C425.778 20.309 426.594 20.5413 426.835 20.5761C427.525 20.6741 428.033 20.9613 428.272 21.3123C428.51 21.6634 428.17 22.8761 427.568 23C427.882 21.8868 426.807 21.7101 426.589 21.6649C426.01 21.5454 424.927 21.1587 423.773 20.4915C422.266 21.3242 420.282 21.8519 417.745 22.0508C415.137 22.2556 413.924 21.4682 412.092 21.5565C410.391 21.6389 407.132 22.6222 405.595 22.1859C403.071 21.4704 403.157 20.3854 402.751 19.2039C404.661 21.4348 406.791 21.4615 409.027 21.0927L409.026 21.0934ZM415.297 9.40681C415.21 9.56785 415.128 9.73632 415.051 9.9137C414.005 12.339 414.396 13.7551 415.297 14.5551C416.195 13.03 417.224 11.5806 418.39 10.9364C418.043 9.89737 416.668 9.49141 415.297 9.40681ZM419.425 11.8937C418.63 12.1045 417.615 12.9046 416.191 15.1065C416.939 15.4234 417.795 15.5154 418.481 15.4998C418.833 15.4917 419.177 15.462 419.507 15.41C419.426 15.0612 419.372 14.6976 419.355 14.3183C419.316 13.4582 419.348 12.6515 419.425 11.8937ZM415.888 8.52143C417.535 8.72403 418.539 9.71925 419.642 10.3768C419.893 9.01421 420.246 7.83791 420.501 6.82636C418.795 6.61262 417.077 7.07349 415.888 8.52143ZM420.416 13.9925C420.447 14.3933 420.514 14.7725 420.609 15.131C421.065 14.9625 421.462 14.7354 421.773 14.4453C422.069 13.4337 421.755 12.3806 420.906 12.063C420.749 12.0043 420.586 11.9442 420.412 11.8997C420.365 12.5624 420.36 13.2593 420.416 13.9925ZM425.37 9.58121C424.415 8.33589 422.919 7.38371 421.332 6.98295C421.073 8.11992 420.725 9.37861 420.528 10.7976C420.539 10.8013 420.549 10.805 420.559 10.8087C421.705 11.185 422.26 12.1928 422.507 12.8467C422.685 11.4856 422.714 11.2384 423.153 11.0091C423.618 10.7649 424.281 11.1739 424.44 11.8945C422.798 11.3475 423.618 13.2838 422.965 14.567C422.575 15.3329 422.077 15.9318 421.073 16.3407C421.707 17.5823 422.705 18.507 423.696 19.1705C426.386 17.4591 427.73 12.6596 425.37 9.58121ZM422.632 19.7472C421.569 18.9642 420.565 17.9415 419.954 16.6695C419.464 16.7719 418.893 16.8483 418.222 16.8981C417.311 16.9656 416.37 16.6687 415.561 16.1218C414.24 18.2755 413.236 19.7004 412.301 20.5145C415.473 20.2526 418.223 21.8935 422.633 19.7479L422.632 19.7472ZM417.697 2.43655C417.673 2.46475 417.653 2.48925 417.638 2.50632C417.659 2.48182 417.679 2.45807 417.697 2.43655ZM417.857 2.24953C417.832 2.27847 417.803 2.31261 417.768 2.35418C417.799 2.31781 417.829 2.28293 417.857 2.24953ZM417.857 2.24953C417.869 2.23617 417.88 2.22356 417.889 2.21243L417.857 2.24953Z" fill="#FFE6A1"/>
</svg>
