<svg preserveAspectRatio="none" width="339" height="34" viewBox="0 0 339 34" fill="none" xmlns="http://www.w3.org/2000/svg">
<path fill-rule="evenodd" clip-rule="evenodd" d="M191.627 30.8125L325.001 30.8125V28.6875L191.627 28.6875V30.8125Z" fill="#FFE6A1"/>
<path d="M327.144 34L338.345 29.5364L327.144 25.0729L322.814 29.5364L327.144 34Z" fill="#FFE6A1"/>
<path fill-rule="evenodd" clip-rule="evenodd" d="M143.997 30.8125L13.3447 30.8125V28.6875L143.997 28.6875V30.8125Z" fill="#FFE6A1"/>
<path d="M11.2013 34L0.00012207 29.5364L11.2013 25.0729L15.5312 29.5364L11.2013 34Z" fill="#FFE6A1"/>
<path d="M143.339 29.8823C143.281 29.8603 143.224 29.8371 143.165 29.814C139.611 28.3589 139.341 22.4891 140.603 20.6702C141.864 18.8513 143.204 17.9671 144.836 18.743C146.467 19.5189 148.585 23.0789 146.255 25.3551L144.857 24.5392C144.857 24.5392 147.05 22.7929 145.769 21.096C144.487 19.398 141.917 21.3336 141.626 24.9724C141.334 28.6112 145.503 29.7804 148.271 27.277C149.158 26.4759 150.248 24.2543 151.553 21.9171C149.82 20.176 148.902 17.5308 150.025 14.8298C150.247 14.2978 150.48 13.7963 150.725 13.3232C149.276 13.3989 148.08 13.6827 147.854 13.9592C147.505 14.3861 147.621 14.6868 147.854 15.1115C146.856 15.0947 146.155 14.7005 146.192 13.5755C144.274 14.385 143.242 13.6974 143.239 12.8069C143.236 11.9164 143.723 11.7997 143.723 11.7997C143.723 11.7997 144.614 12.5388 144.965 12.173C145.367 11.7545 146.091 11.8817 146.091 11.8817C146.091 11.8817 145.441 11.0669 146.377 10.5023C146.673 11.5095 147.865 12.2592 151.456 12.0552C153.355 9.13027 155.914 7.7435 159.483 8.19769C159.651 8.21872 159.822 8.24501 159.993 8.27444C160.007 8.24921 160.021 8.22398 160.037 8.19769C160.046 8.17982 160.055 8.1609 160.064 8.14302C160.252 7.03803 160.246 6.1023 159.852 5.31798C158.451 2.52762 156.829 4.46005 155.606 3.58951C155.606 3.58951 159.982 1.10931 161.14 4.807C161.204 5.01307 161.254 5.22125 161.293 5.43257C162.686 2.30262 164.283 -0.669617 168.158 0.132584C173.103 1.15768 173.267 4.58411 172.536 6.69107C172.182 7.71301 170.953 9.21017 168.343 8.96625C166.049 8.75177 165.109 7.59631 165.385 6.33886C165.681 4.98889 166.689 5.06039 167.648 4.96997C168.545 4.88586 168.718 3.74722 167.915 3.63577C168.34 3.34139 169.416 3.78296 169.352 4.42641C169.289 5.06985 168.69 5.71014 167.973 5.70068C166.503 5.6828 165.893 6.95812 167.604 7.62049C169.581 8.38694 171.562 7.14632 171.665 4.93212C171.767 2.72948 168.284 0.344961 165.517 1.65813C162.918 2.8914 162.053 6.66163 161.444 8.60983C165.657 9.83048 170.325 13.3253 170.004 19.3339C169.803 23.0936 168.539 26.0385 165.875 28.074C167.264 28.771 168.429 29.1001 168.773 29.1495C169.759 29.2883 170.484 29.6952 170.825 30.1925C171.166 30.6898 170.68 32.4078 169.82 32.5833C170.269 31.0063 168.734 30.756 168.423 30.6919C167.595 30.5226 166.049 29.9749 164.401 29.0297C162.248 30.2093 159.414 30.9569 155.791 31.2386C152.066 31.5288 150.334 30.4133 147.718 30.5384C145.288 30.6551 140.634 32.0482 138.439 31.43C134.834 30.4164 134.956 28.8793 134.377 27.2055C137.104 30.366 140.147 30.4038 143.34 29.8813L143.339 29.8823ZM152.295 13.3263C152.171 13.5545 152.054 13.7931 151.944 14.0444C150.45 17.4803 151.009 19.4863 152.295 20.6197C153.578 18.4591 155.047 16.4058 156.713 15.4932C156.217 14.0213 154.253 13.4451 152.295 13.3253V13.3263ZM158.19 16.8495C157.055 17.1481 155.605 18.2815 153.571 21.4009C154.64 21.8498 155.863 21.9802 156.842 21.9581C157.344 21.9466 157.837 21.9045 158.308 21.8309C158.191 21.3368 158.116 20.8216 158.091 20.2843C158.035 19.0658 158.08 17.9219 158.19 16.8484V16.8495ZM153.138 12.072C155.491 12.359 156.926 13.7689 158.501 14.7005C158.858 12.7701 159.363 11.1037 159.727 9.67068C157.291 9.36788 154.837 10.0208 153.138 12.072ZM159.606 19.8228C159.65 20.3905 159.746 20.9278 159.881 21.4356C160.532 21.1969 161.099 20.8752 161.544 20.4641C161.967 19.0311 161.518 17.5392 160.306 17.0892C160.081 17.0061 159.848 16.921 159.6 16.8579C159.534 17.7968 159.526 18.783 159.606 19.8217V19.8228ZM166.681 13.5734C165.317 11.8092 163.181 10.4603 160.914 9.89251C160.543 11.5032 160.047 13.2864 159.766 15.2966C159.781 15.3018 159.795 15.3071 159.811 15.3124C161.447 15.8454 162.24 17.2732 162.592 18.1994C162.846 16.2712 162.889 15.9211 163.514 15.5962C164.178 15.2503 165.126 15.8296 165.353 16.8505C163.008 16.0757 164.179 18.8187 163.246 20.6365C162.689 21.7216 161.979 22.57 160.544 23.1493C161.45 24.9083 162.874 26.2183 164.29 27.1582C168.132 24.7338 170.052 17.9355 166.681 13.5744V13.5734ZM162.771 27.9751C161.253 26.8659 159.819 25.4171 158.945 23.6151C158.246 23.7602 157.431 23.8685 156.473 23.9389C155.171 24.0346 153.827 23.614 152.672 22.8392C150.785 25.8903 149.351 27.9089 148.016 29.0623C152.546 28.6911 156.474 31.0157 162.772 27.9762L162.771 27.9751ZM155.723 3.45178C155.689 3.49173 155.659 3.52643 155.638 3.55061C155.668 3.51591 155.697 3.48227 155.723 3.45178ZM155.951 3.18684C155.916 3.22784 155.875 3.2762 155.824 3.33508C155.869 3.28356 155.911 3.23415 155.951 3.18684ZM155.951 3.18684C155.968 3.16791 155.984 3.15004 155.997 3.13427L155.951 3.18684Z" fill="#FFE6A1"/>
<path d="M194.129 29.8823C194.186 29.8603 194.244 29.8371 194.303 29.814C197.856 28.3589 198.126 22.4891 196.865 20.6702C195.604 18.8513 194.263 17.9671 192.632 18.743C191 19.5189 188.883 23.0789 191.213 25.3551L192.611 24.5392C192.611 24.5392 190.417 22.7929 191.699 21.096C192.98 19.398 195.551 21.3336 195.842 24.9724C196.133 28.6112 191.965 29.7804 189.196 27.277C188.31 26.4759 187.22 24.2543 185.914 21.9171C187.648 20.176 188.565 17.5308 187.442 14.8298C187.221 14.2978 186.988 13.7963 186.743 13.3232C188.191 13.3989 189.387 13.6827 189.614 13.9592C189.962 14.3861 189.847 14.6868 189.614 15.1115C190.611 15.0947 191.313 14.7005 191.275 13.5755C193.194 14.385 194.226 13.6974 194.229 12.8069C194.232 11.9164 193.745 11.7997 193.745 11.7997C193.745 11.7997 192.853 12.5388 192.502 12.173C192.1 11.7545 191.376 11.8817 191.376 11.8817C191.376 11.8817 192.026 11.0669 191.09 10.5023C190.794 11.5095 189.602 12.2592 186.011 12.0552C184.113 9.13027 181.554 7.7435 177.985 8.19769C177.817 8.21872 177.646 8.24501 177.474 8.27444C177.461 8.24921 177.447 8.22398 177.431 8.19769C177.422 8.17982 177.412 8.1609 177.403 8.14302C177.215 7.03803 177.221 6.1023 177.616 5.31798C179.017 2.52762 180.639 4.46006 181.862 3.58952C181.862 3.58952 177.485 1.10931 176.328 4.807C176.263 5.01307 176.214 5.22125 176.174 5.43257C174.781 2.30262 173.184 -0.669616 169.31 0.132584C164.364 1.15767 164.201 4.58411 164.931 6.69107C165.286 7.71301 166.515 9.21017 169.125 8.96625C171.418 8.75177 172.359 7.59631 172.083 6.33886C171.787 4.98889 170.779 5.06039 169.82 4.96997C168.923 4.88586 168.75 3.74722 169.553 3.63577C169.128 3.34139 168.052 3.78296 168.115 4.42641C168.179 5.06985 168.777 5.71013 169.495 5.70067C170.965 5.6828 171.575 6.95812 169.864 7.62049C167.887 8.38694 165.906 7.14631 165.803 4.93212C165.701 2.72948 169.184 0.344961 171.951 1.65813C174.55 2.8914 175.415 6.66163 176.024 8.60983C171.811 9.83048 167.143 13.3253 167.463 19.3339C167.665 23.0936 168.929 26.0385 171.592 28.074C170.204 28.771 169.039 29.1001 168.695 29.1495C167.709 29.2883 166.983 29.6952 166.643 30.1925C166.302 30.6898 166.788 32.4077 167.647 32.5833C167.199 31.0063 168.734 30.756 169.045 30.6919C169.873 30.5226 171.419 29.9749 173.067 29.0297C175.22 30.2093 178.053 30.9568 181.677 31.2386C185.402 31.5288 187.133 30.4133 189.75 30.5384C192.18 30.6551 196.834 32.0482 199.029 31.43C202.633 30.4164 202.511 28.8793 203.09 27.2055C200.363 30.366 197.321 30.4038 194.128 29.8813L194.129 29.8823ZM185.172 13.3263C185.297 13.5545 185.414 13.7931 185.524 14.0444C187.018 17.4803 186.459 19.4863 185.172 20.6197C183.89 18.4591 182.421 16.4058 180.755 15.4932C181.25 14.0213 183.214 13.4451 185.172 13.3253V13.3263ZM179.277 16.8495C180.413 17.1481 181.863 18.2815 183.897 21.4009C182.827 21.8498 181.605 21.9802 180.626 21.9581C180.123 21.9465 179.631 21.9045 179.16 21.8309C179.276 21.3368 179.352 20.8216 179.376 20.2843C179.433 19.0658 179.388 17.9219 179.277 16.8484V16.8495ZM184.329 12.072C181.977 12.359 180.542 13.7689 178.967 14.7005C178.609 12.7701 178.105 11.1037 177.741 9.67067C180.177 9.36788 182.631 10.0208 184.329 12.072ZM177.861 19.8228C177.818 20.3905 177.722 20.9278 177.586 21.4356C176.935 21.1969 176.368 20.8752 175.924 20.4641C175.501 19.0311 175.95 17.5392 177.162 17.0892C177.386 17.0061 177.62 16.921 177.867 16.8579C177.934 17.7968 177.942 18.783 177.861 19.8217V19.8228ZM170.787 13.5734C172.15 11.8092 174.287 10.4603 176.553 9.89251C176.924 11.5032 177.421 13.2864 177.702 15.2966C177.686 15.3018 177.672 15.3071 177.657 15.3124C176.021 15.8454 175.228 17.2732 174.875 18.1994C174.622 16.2712 174.579 15.9211 173.954 15.5962C173.289 15.2503 172.341 15.8296 172.115 16.8505C174.46 16.0757 173.289 18.8187 174.221 20.6365C174.778 21.7216 175.489 22.57 176.923 23.1493C176.018 24.9083 174.593 26.2183 173.177 27.1582C169.335 24.7337 167.416 17.9355 170.787 13.5744V13.5734ZM174.696 27.9751C176.215 26.8659 177.649 25.4171 178.522 23.6151C179.222 23.7602 180.036 23.8685 180.995 23.9389C182.297 24.0346 183.641 23.614 184.795 22.8392C186.682 25.8903 188.117 27.9089 189.452 29.0623C184.922 28.6911 180.994 31.0157 174.695 27.9762L174.696 27.9751ZM181.745 3.45178C181.779 3.49173 181.808 3.52643 181.83 3.55061C181.799 3.51592 181.771 3.48227 181.745 3.45178ZM181.516 3.18684C181.552 3.22784 181.593 3.27621 181.644 3.33508C181.599 3.28357 181.557 3.23415 181.516 3.18684ZM181.516 3.18684C181.5 3.16791 181.484 3.15004 181.471 3.13427L181.516 3.18684Z" fill="#FFE6A1"/>
</svg>
