<svg width="357" height="24" viewBox="0 0 357 24" fill="none" xmlns="http://www.w3.org/2000/svg">
<path fill-rule="evenodd" clip-rule="evenodd" d="M163.778 21.7499L9.46901 21.7499V20.2499L163.778 20.2499V21.7499Z" fill="#FFE6A1"/>
<path d="M7.9682 23.9999L0.125192 20.8492L7.9682 17.6984L11 20.8492L7.9682 23.9999Z" fill="#FFE6A1"/>
<path fill-rule="evenodd" clip-rule="evenodd" d="M197.127 21.7499L347.656 21.75V20.25L197.127 20.2499V21.7499Z" fill="#FFE6A1"/>
<path d="M349.157 24L357 20.8492L349.157 17.6985L346.125 20.8492L349.157 24Z" fill="#FFE6A1"/>
<path d="M197.588 21.0934C197.629 21.0778 197.669 21.0614 197.71 21.0451C200.198 20.018 200.387 15.8746 199.504 14.5906C198.621 13.3067 197.682 12.6826 196.54 13.2303C195.398 13.778 193.915 16.2909 195.546 17.8977L196.525 17.3218C196.525 17.3218 194.989 16.089 195.887 14.8912C196.784 13.6926 198.584 15.0589 198.788 17.6275C198.992 20.1961 196.073 21.0214 194.134 19.2543C193.514 18.6888 192.751 17.1206 191.836 15.4708C193.05 14.2418 193.693 12.3746 192.907 10.468C192.752 10.0925 192.588 9.73848 192.417 9.40451C193.431 9.45795 194.268 9.65833 194.427 9.85351C194.671 10.1548 194.59 10.3671 194.427 10.6669C195.125 10.655 195.617 10.3767 195.59 9.58263C196.934 10.1541 197.656 9.66872 197.658 9.04012C197.66 8.41152 197.319 8.32914 197.319 8.32914C197.319 8.32914 196.695 8.85087 196.45 8.5926C196.168 8.29723 195.661 8.38703 195.661 8.38703C195.661 8.38703 196.116 7.81186 195.461 7.41333C195.253 8.12431 194.419 8.65346 191.904 8.50948C190.575 6.44483 188.783 5.46593 186.284 5.78654C186.167 5.80138 186.047 5.81993 185.927 5.84072C185.918 5.8229 185.908 5.80509 185.896 5.78654C185.89 5.77392 185.884 5.76056 185.877 5.74795C185.746 4.96795 185.75 4.30744 186.026 3.7538C187.007 1.78413 188.143 3.1482 188.999 2.5337C188.999 2.5337 185.935 0.782974 185.124 3.39311C185.079 3.53857 185.044 3.68552 185.017 3.83469C184.041 1.62531 182.923 -0.47274 180.21 0.0935192C176.747 0.817114 176.633 3.23577 177.144 4.72304C177.393 5.44441 178.253 6.50123 180.081 6.32905C181.687 6.17765 182.345 5.36203 182.152 4.47442C181.944 3.5215 181.239 3.57197 180.567 3.50814C179.939 3.44877 179.818 2.64503 180.38 2.56636C180.083 2.35856 179.329 2.67026 179.374 3.12445C179.418 3.57865 179.837 4.03062 180.34 4.02394C181.369 4.01132 181.796 4.91155 180.598 5.3791C179.214 5.92013 177.827 5.04439 177.754 3.48143C177.683 1.92662 180.122 0.243433 182.06 1.17038C183.879 2.04092 184.485 4.70226 184.911 6.07746C181.961 6.93909 178.693 9.406 178.917 13.6474C179.058 16.3013 179.944 18.3801 181.808 19.8169C180.836 20.3089 180.021 20.5412 179.779 20.5761C179.089 20.674 178.581 20.9613 178.343 21.3123C178.104 21.6633 178.445 22.876 179.046 22.9999C178.732 21.8867 179.807 21.7101 180.025 21.6648C180.604 21.5453 181.687 21.1587 182.841 20.4915C184.348 21.3242 186.332 21.8518 188.87 22.0507C191.478 22.2556 192.69 21.4681 194.522 21.5565C196.224 21.6388 199.482 22.6222 201.019 22.1858C203.543 21.4704 203.458 20.3853 203.863 19.2038C201.954 21.4347 199.823 21.4615 197.588 21.0926L197.588 21.0934ZM191.317 9.40674C191.404 9.56779 191.486 9.73625 191.563 9.91363C192.609 12.339 192.218 13.755 191.317 14.555C190.419 13.0299 189.39 11.5805 188.224 10.9363C188.571 9.8973 189.946 9.49134 191.317 9.40674ZM187.189 11.8937C187.984 12.1044 189 12.9045 190.424 15.1064C189.675 15.4233 188.819 15.5154 188.133 15.4998C187.782 15.4916 187.437 15.4619 187.107 15.41C187.189 15.0612 187.242 14.6975 187.259 14.3183C187.298 13.4581 187.267 12.6514 187.189 11.8937ZM190.727 8.52136C189.08 8.72396 188.075 9.71919 186.972 10.3767C186.722 9.01414 186.368 7.83784 186.114 6.82629C187.819 6.61255 189.538 7.07343 190.727 8.52136ZM186.198 13.9925C186.167 14.3932 186.1 14.7725 186.005 15.1309C185.55 14.9625 185.153 14.7354 184.841 14.4452C184.545 13.4336 184.86 12.3805 185.708 12.0629C185.865 12.0043 186.029 11.9441 186.202 11.8996C186.249 12.5624 186.254 13.2592 186.198 13.9925ZM181.244 9.58115C182.199 8.33582 183.695 7.38364 185.282 6.98288C185.542 8.11985 185.889 9.37854 186.086 10.7975C186.075 10.8012 186.065 10.8049 186.055 10.8087C184.909 11.1849 184.354 12.1928 184.107 12.8466C183.93 11.4855 183.9 11.2384 183.462 11.009C182.997 10.7649 182.333 11.1738 182.174 11.8944C183.816 11.3475 182.996 13.2837 183.649 14.5669C184.039 15.3328 184.537 15.9317 185.541 16.3406C184.907 17.5822 183.91 18.507 182.918 19.1704C180.228 17.4591 178.884 12.6596 181.244 9.58115ZM183.982 19.7471C185.045 18.9641 186.049 17.9414 186.661 16.6694C187.15 16.7718 187.721 16.8483 188.392 16.898C189.303 16.9655 190.245 16.6687 191.053 16.1217C192.374 18.2754 193.379 19.7003 194.314 20.5145C191.141 20.2525 188.391 21.8934 183.981 19.7478L183.982 19.7471ZM188.917 2.43648C188.941 2.46469 188.962 2.48917 188.976 2.50624C188.955 2.48175 188.935 2.45801 188.917 2.43648ZM188.757 2.24946C188.782 2.27841 188.811 2.31254 188.846 2.3541C188.815 2.31774 188.785 2.28286 188.757 2.24946ZM188.757 2.24946C188.746 2.2361 188.734 2.22349 188.725 2.21235L188.757 2.24946Z" fill="#FFE6A1"/>
<path d="M162.026 21.0933C161.985 21.0778 161.945 21.0614 161.904 21.0451C159.415 20.018 159.226 15.8746 160.11 14.5906C160.993 13.3067 161.931 12.6826 163.074 13.2303C164.216 13.778 165.699 16.2909 164.067 17.8977L163.089 17.3218C163.089 17.3218 164.624 16.089 163.727 14.8912C162.83 13.6926 161.03 15.0589 160.826 17.6275C160.622 20.1961 163.541 21.0214 165.479 19.2543C166.1 18.6888 166.863 17.1206 167.777 15.4708C166.564 14.2418 165.921 12.3746 166.707 10.468C166.862 10.0925 167.026 9.73848 167.197 9.40451C166.183 9.45795 165.346 9.65833 165.187 9.85351C164.943 10.1548 165.024 10.3671 165.187 10.6669C164.488 10.655 163.997 10.3767 164.023 9.58263C162.68 10.1541 161.958 9.66872 161.955 9.04012C161.953 8.41152 162.295 8.32914 162.295 8.32914C162.295 8.32914 162.919 8.85087 163.164 8.5926C163.446 8.29723 163.953 8.38703 163.953 8.38703C163.953 8.38703 163.498 7.81186 164.153 7.41333C164.36 8.12431 165.195 8.65346 167.709 8.50948C169.038 6.44483 170.831 5.46593 173.33 5.78654C173.447 5.80138 173.567 5.81993 173.687 5.84072C173.696 5.8229 173.706 5.80509 173.717 5.78654C173.724 5.77392 173.73 5.76056 173.736 5.74795C173.868 4.96795 173.864 4.30744 173.588 3.7538C172.607 1.78413 171.471 3.1482 170.615 2.53371C170.615 2.53371 173.679 0.782974 174.49 3.39311C174.535 3.53857 174.57 3.68552 174.597 3.83469C175.572 1.62531 176.691 -0.47274 179.403 0.0935192C182.866 0.817114 182.981 3.23577 182.469 4.72304C182.221 5.44441 181.36 6.50123 179.533 6.32905C177.927 6.17765 177.269 5.36203 177.462 4.47442C177.669 3.5215 178.375 3.57197 179.047 3.50814C179.674 3.44877 179.795 2.64503 179.234 2.56636C179.531 2.35856 180.285 2.67026 180.24 3.12445C180.195 3.57865 179.776 4.03061 179.274 4.02394C178.245 4.01132 177.817 4.91154 179.016 5.3791C180.4 5.92012 181.787 5.04439 181.859 3.48142C181.931 1.92662 179.492 0.243433 177.554 1.17038C175.734 2.04092 175.129 4.70226 174.703 6.07746C177.652 6.93909 180.921 9.40599 180.696 13.6474C180.556 16.3013 179.67 18.3801 177.805 19.8169C178.778 20.3089 179.593 20.5412 179.834 20.5761C180.524 20.674 181.033 20.9612 181.271 21.3123C181.51 21.6633 181.169 22.876 180.568 22.9999C180.882 21.8867 179.807 21.7101 179.589 21.6648C179.009 21.5453 177.927 21.1587 176.773 20.4915C175.265 21.3242 173.281 21.8518 170.744 22.0507C168.136 22.2556 166.924 21.4681 165.091 21.5564C163.39 21.6388 160.132 22.6222 158.594 22.1858C156.071 21.4704 156.156 20.3853 155.751 19.2038C157.66 21.4347 159.79 21.4615 162.026 21.0926L162.026 21.0933ZM168.297 9.40674C168.21 9.56779 168.128 9.73625 168.05 9.91363C167.004 12.339 167.396 13.755 168.297 14.555C169.195 13.0299 170.223 11.5805 171.39 10.9363C171.043 9.8973 169.668 9.49134 168.297 9.40674ZM172.424 11.8937C171.63 12.1044 170.614 12.9045 169.19 15.1064C169.939 15.4233 170.794 15.5154 171.48 15.4998C171.832 15.4916 172.177 15.4619 172.506 15.41C172.425 15.0612 172.372 14.6975 172.355 14.3183C172.315 13.4581 172.347 12.6514 172.424 11.8937ZM168.887 8.52136C170.534 8.72396 171.539 9.71918 172.642 10.3767C172.892 9.01414 173.245 7.83784 173.5 6.82629C171.794 6.61255 170.076 7.07343 168.887 8.52136ZM173.416 13.9925C173.446 14.3932 173.514 14.7725 173.608 15.1309C174.064 14.9625 174.461 14.7354 174.773 14.4452C175.068 13.4336 174.754 12.3805 173.906 12.0629C173.749 12.0043 173.585 11.9441 173.412 11.8996C173.365 12.5624 173.359 13.2592 173.416 13.9925ZM178.369 9.58115C177.415 8.33582 175.918 7.38364 174.332 6.98288C174.072 8.11985 173.724 9.37854 173.528 10.7975C173.538 10.8012 173.548 10.8049 173.559 10.8087C174.705 11.1849 175.26 12.1928 175.507 12.8466C175.684 11.4855 175.714 11.2384 176.152 11.009C176.617 10.7649 177.281 11.1738 177.439 11.8944C175.797 11.3475 176.618 13.2837 175.964 14.5669C175.574 15.3328 175.077 15.9317 174.073 16.3406C174.707 17.5822 175.704 18.507 176.696 19.1704C179.386 17.459 180.73 12.6596 178.369 9.58115ZM175.632 19.7471C174.569 18.9641 173.565 17.9414 172.953 16.6694C172.463 16.7718 171.893 16.8483 171.222 16.898C170.31 16.9655 169.369 16.6687 168.561 16.1217C167.239 18.2754 166.235 19.7003 165.3 20.5145C168.472 20.2525 171.223 21.8934 175.633 19.7478L175.632 19.7471ZM170.697 2.43648C170.673 2.46469 170.652 2.48918 170.637 2.50625C170.659 2.48176 170.678 2.45801 170.697 2.43648ZM170.857 2.24946C170.832 2.27841 170.803 2.31255 170.768 2.35411C170.799 2.31774 170.828 2.28286 170.857 2.24946ZM170.857 2.24946C170.868 2.2361 170.879 2.22349 170.889 2.21236L170.857 2.24946Z" fill="#FFE6A1"/>
</svg>
