<svg width="882" height="377" viewBox="0 0 882 377" fill="none" preserveAspectRatio="none" xmlns="http://www.w3.org/2000/svg">
<path d="M73.5 22L11.6853 22L1.13386 32.4905L1 32.3574L1 365.643L1.13386 365.51L11.6853 376H870.448L881 365.51L881.134 365.643V32.3574L881 32.4905L870.448 22L190.5 22" stroke="#635C4C"/>
<g opacity="0.2">
<path d="M127.845 0H99.2266C97.9967 0 97 1.00521 97 2.24549V31.1077C97 32.348 97.9967 33.3532 99.2266 33.3532H111.309V52.7545C111.309 53.9942 112.306 55 113.536 55H120.691C121.649 55 122.5 54.3813 122.803 53.4644L129.957 31.8176C130.033 31.589 130.072 31.3492 130.072 31.1077V2.24549C130.072 1.00521 129.075 0 127.845 0Z" fill="#635C4C"/>
<path d="M170.773 0H142.155C140.925 0 139.928 1.00521 139.928 2.24549V31.1077C139.928 32.348 140.925 33.3532 142.155 33.3532H154.238V52.7545C154.238 53.9942 155.234 55 156.464 55H163.619C164.577 55 165.428 54.3813 165.731 53.4644L172.886 31.8176C172.961 31.589 173 31.3492 173 31.1077V2.24549C173 1.00521 172.003 0 170.773 0Z" fill="#635C4C"/>
</g>
</svg>
