<svg width="23" height="16" viewBox="0 0 23 16" fill="none" xmlns="http://www.w3.org/2000/svg">
<path d="M22.1219 4.4256V3.27504C22.1219 1.95708 21.0535 0.888672 19.7355 0.888672H2.69007C1.37212 0.888672 0.303711 1.95708 0.303711 3.27504V4.4256C0.303711 4.54326 0.399123 4.63867 0.516779 4.63867H21.9088C22.0265 4.63867 22.1219 4.54326 22.1219 4.4256Z" fill="url(#paint0_linear_1939_93)"/>
<path d="M0.303711 6.21538V13.5023C0.303711 14.8203 1.37212 15.8887 2.69007 15.8887H19.7355C21.0535 15.8887 22.1219 14.8203 22.1219 13.5023V6.21538C22.1219 6.09772 22.0265 6.00231 21.9088 6.00231H0.516779C0.399123 6.00231 0.303711 6.09772 0.303711 6.21538ZM5.75826 11.7978C5.75826 12.1743 5.45297 12.4796 5.07644 12.4796H4.39462C4.01809 12.4796 3.7128 12.1743 3.7128 11.7978V11.1159C3.7128 10.7394 4.01809 10.4341 4.39462 10.4341H5.07644C5.45297 10.4341 5.75826 10.7394 5.75826 11.1159V11.7978Z" fill="url(#paint1_linear_1939_93)"/>
<defs>
<linearGradient id="paint0_linear_1939_93" x1="11.2128" y1="0.888672" x2="11.2128" y2="15.8887" gradientUnits="userSpaceOnUse">
<stop stop-color="#FFC734"/>
<stop offset="1" stop-color="#F2A000"/>
</linearGradient>
<linearGradient id="paint1_linear_1939_93" x1="11.2128" y1="0.888672" x2="11.2128" y2="15.8887" gradientUnits="userSpaceOnUse">
<stop stop-color="#FFC734"/>
<stop offset="1" stop-color="#F2A000"/>
</linearGradient>
</defs>
</svg>
