<svg class="logo" width="132" height="16" viewBox="0 0 132 16" fill="none" xmlns="http://www.w3.org/2000/svg">
<g clip-path="url(#clip0_1285_637)">
<path d="M1.68254 0.200998C1.17367 0.443825 0.719809 0.943762 0.527263 1.47227C0.43099 1.74366 0.375977 4.2862 0.375977 8.94276V15.999H3.53923V11.571H7.74774L8.848 13.785L9.93451 15.999H11.7637C12.7539 15.999 13.5791 15.9562 13.5791 15.9133C13.5791 15.8562 13.0152 14.6849 12.3138 13.3136L11.0623 10.7997L11.3924 10.5854C13.249 9.31414 14.0742 6.81446 13.5791 3.95767C13.2628 2.21503 12.4514 0.986614 11.1998 0.415257C10.4984 0.0867262 10.3746 0.072443 6.28989 0.0438747C2.9891 0.0153065 2.01262 0.0438747 1.68254 0.200998ZM9.65944 3.42917C9.87949 3.51487 10.0995 3.77198 10.2233 4.10051C10.4846 4.74329 10.5121 6.38594 10.2783 6.87159C9.68695 8.05716 8.95802 8.2857 5.84978 8.2857H3.53923V3.28633H6.41367C7.99529 3.28633 9.45314 3.34346 9.65944 3.42917ZM18.2552 0.129579C16.8937 0.558096 15.9172 1.57226 15.5046 2.9578C15.1745 4.07194 14.8169 6.70019 14.8169 7.97146C14.8169 9.19987 15.147 11.6996 15.4358 12.7137C15.9447 14.4706 16.8111 15.3705 18.4065 15.799C19.0942 15.9847 19.8231 16.0133 22.1612 15.9705C24.8431 15.9276 25.1181 15.8848 25.792 15.5848C27.7313 14.6849 28.5702 12.3995 28.5702 8.00002C28.5564 3.37203 27.69 1.0866 25.6408 0.300985C24.9118 0.0295906 24.5955 0.00102329 21.7211 0.0153065C20.0019 0.0153065 18.4478 0.072443 18.2552 0.129579ZM24.6505 3.61486C25.572 4.92898 25.5582 11.3996 24.623 12.3566C24.3479 12.6566 19.0529 12.6709 18.8191 12.3852C18.1727 11.571 17.9389 6.87159 18.434 4.67187C18.6403 3.80055 18.7504 3.52915 18.9842 3.42917C19.1492 3.35775 20.4558 3.31489 21.8724 3.32918C24.1967 3.35775 24.4855 3.38631 24.6505 3.61486ZM31.5409 0.315269C31.2383 0.50096 30.867 0.872343 30.7157 1.14374C30.4406 1.62939 30.4269 1.8865 30.3856 7.60007C30.3581 11.5853 30.3994 13.7422 30.4957 14.1421C30.7295 15.0277 31.3346 15.6705 32.1598 15.8419C33.0125 16.0419 39.0777 16.0419 40.1642 15.8562C42.2822 15.4991 43.3687 14.2135 43.52 11.8567C43.6163 10.5283 43.41 9.54269 42.8736 8.65708L42.4748 8.01431L42.9836 6.98586C43.4788 6.00027 43.4925 5.90029 43.4925 4.51474C43.4925 3.32918 43.4237 2.94351 43.1762 2.35787C42.7773 1.45798 42.296 0.929479 41.4295 0.458109L40.7419 0.072443L36.4096 0.0295906C32.1185 0.00102329 32.0773 0.00102329 31.5409 0.315269ZM40.0542 3.45773C40.2467 3.65771 40.3705 4.61473 40.2467 5.05753C40.178 5.31464 39.9579 5.67174 39.7654 5.87172C39.4215 6.21453 39.3665 6.21453 36.5334 6.25738L33.6589 6.30024V3.27204L36.8084 3.31489C38.5413 3.34346 39.9992 3.4006 40.0542 3.45773ZM39.449 9.82837C39.9992 10.0569 40.3018 10.6711 40.288 11.4853C40.2742 11.9995 40.2055 12.2566 40.0404 12.3852C39.8616 12.528 38.9952 12.5709 36.7259 12.5709H33.6589V9.54269L36.3821 9.59982C37.8674 9.64267 39.2565 9.74266 39.449 9.82837ZM48.1274 0.300985C46.7933 0.843775 46.1194 1.81508 45.5968 3.95767C45.3355 5.04325 45.2942 5.61461 45.2942 8.00002C45.2942 10.5997 45.3217 10.8854 45.6655 12.2138C46.0919 13.8279 46.4907 14.5278 47.2884 15.142C48.2787 15.8705 48.5812 15.9276 52.0883 15.9276C55.5954 15.9276 55.898 15.8705 56.8882 15.142C57.6859 14.5278 58.0847 13.8279 58.5111 12.2138C58.8549 10.8854 58.8824 10.5997 58.8824 8.00002C58.8824 5.61461 58.8412 5.04325 58.5799 3.95767C58.0572 1.78651 57.3833 0.829491 56.008 0.300985C55.3066 0.0295906 54.9627 0.00102329 52.0471 0.0153065C49.1726 0.0153065 48.7875 0.0438747 48.1274 0.300985ZM54.7565 3.42917C55.1278 3.57201 55.2928 4.01481 55.5541 5.62889C55.8842 7.61436 55.5954 11.3567 55.0453 12.2281C54.839 12.5709 54.8252 12.5709 52.0883 12.5709C48.87 12.5709 49.0626 12.6709 48.705 10.7711C48.1961 8.14286 48.6087 3.7577 49.3789 3.42917C49.7915 3.25776 54.3163 3.25776 54.7565 3.42917Z" fill="#276EB8"/>
<path d="M61.4547 0.444016L61.0283 0.886817V15.0279L61.4272 15.4421C61.7848 15.7992 61.936 15.8564 62.6375 15.8564C63.3114 15.8564 63.5039 15.7992 63.7515 15.5278C64.2328 14.9993 64.3291 14.3851 64.3291 11.8997V9.57145H66.3508L67.3686 10.4856C69.4041 12.2997 70.1055 13.271 70.1055 14.2423C70.1055 14.7851 70.1743 14.9565 70.5731 15.3707C70.9857 15.7992 71.1232 15.8564 71.7421 15.8564C72.3198 15.8564 72.5123 15.785 72.8836 15.4421C73.3238 15.0422 73.3375 14.9851 73.3238 13.9423C73.31 13.0424 73.2412 12.7139 72.8836 11.9569C72.4023 10.957 70.9994 9.1715 70.1192 8.44302L69.5416 7.97165L70.4356 7.1289C71.5083 6.10045 72.4986 4.77205 72.9662 3.72932C73.2275 3.1294 73.31 2.70088 73.3238 1.90098C73.3375 0.872534 73.3238 0.815397 72.8836 0.415447C72.4848 0.0440655 72.3335 0.00121403 71.5633 0.00121403C70.7656 0.00121403 70.6419 0.0440655 70.3943 0.372596C70.2018 0.629706 70.1055 0.958238 70.1055 1.38676C70.1055 1.72957 70.023 2.21522 69.9129 2.47233C69.6791 3.07226 68.6339 4.25783 67.3686 5.38626L66.3508 6.28614H64.3291V3.95786C64.3291 2.68659 64.2603 1.40104 64.1916 1.11536C63.9853 0.344028 63.4902 0.00121403 62.5962 0.00121403C61.9773 0.00121403 61.8123 0.0583496 61.4547 0.444016ZM78.9626 0.201189C77.1059 0.815397 76.0882 2.18666 75.373 4.98631C75.0429 6.24329 75.0154 6.67181 74.9604 10.2999C74.8779 14.5851 74.9329 15.0565 75.5655 15.5707C76.0194 15.9421 77.1884 15.9564 77.6148 15.5993C78.1099 15.185 78.2199 14.7851 78.2199 13.2996V11.8569H85.3716V13.4424C85.3716 14.9993 85.3716 15.0279 85.7705 15.4421C86.1281 15.7992 86.2793 15.8564 86.9533 15.8564C87.6547 15.8564 87.7785 15.8135 88.1498 15.3993L88.5486 14.9422L88.5074 10.3713C88.4524 6.1433 88.4249 5.7005 88.1498 4.74348C87.4896 2.48662 86.5269 1.07251 85.2341 0.444016C84.5189 0.101201 84.3264 0.0726328 82.0021 0.0440655C80.2417 0.0154972 79.3614 0.0583496 78.9626 0.201189ZM83.7075 3.44364C84.4639 3.71504 85.1103 5.44339 85.2891 7.60027L85.3579 8.57157H78.1787L78.2749 7.42886C78.44 5.41482 79.1964 3.52935 79.8978 3.38651C80.5717 3.25795 83.2949 3.3008 83.7075 3.44364ZM92.8672 0.201189C91.5193 0.643991 90.7629 1.32962 90.2953 2.57232C90.0615 3.20082 89.9927 3.6579 89.9927 4.78633C89.9927 7.07176 90.6529 8.3716 92.207 9.15721C92.8259 9.47146 93.0735 9.50003 95.7829 9.57145C98.5885 9.64287 98.7123 9.65715 99.0149 9.9714C99.4137 10.3856 99.455 11.5998 99.0836 12.1854L98.8498 12.5711H95.1502C91.6569 12.5711 91.4368 12.5854 91.1067 12.8568C90.3366 13.4852 90.3091 14.8565 91.038 15.4993L91.4506 15.8564H95.4528C97.6808 15.8564 99.6888 15.785 99.9639 15.7135C100.72 15.4993 101.532 14.6708 102.041 13.5995C102.467 12.6996 102.494 12.5711 102.494 11.0713C102.494 9.67143 102.453 9.41432 102.137 8.71441C101.683 7.71454 101.064 6.97177 100.39 6.62896C99.9501 6.40042 99.4412 6.34328 96.7456 6.28614C93.101 6.20044 93.211 6.25758 93.211 4.78633C93.211 3.3008 93.0047 3.37222 97.392 3.28652L101.188 3.2151L101.559 2.82943C101.889 2.48662 101.931 2.31521 101.986 1.22963L102.054 0.00121403L97.7358 0.0154972C94.6551 0.0154972 93.266 0.0726328 92.8672 0.201189ZM106.483 0.201189C106.18 0.301176 105.754 0.486867 105.52 0.601139C103.746 1.57245 103.003 4.82918 104.021 7.14318C104.447 8.11449 104.915 8.62871 105.795 9.11436C106.455 9.48574 106.565 9.50003 109.234 9.54288C110.746 9.55716 112.149 9.65715 112.356 9.72857C112.837 9.92855 113.071 10.657 112.947 11.5141C112.796 12.5996 112.906 12.5711 108.738 12.5711H105.011L104.612 12.9853C104.269 13.3567 104.214 13.5138 104.214 14.2137C104.214 14.9136 104.269 15.0708 104.612 15.4421L105.011 15.8564H109.165C113.786 15.8564 113.896 15.8421 114.859 14.8851C115.698 14.0423 116.083 13.0424 116.151 11.3998C116.234 9.50003 115.89 8.38588 114.872 7.34315C114.419 6.87179 113.965 6.54325 113.621 6.44327C113.318 6.35756 111.943 6.28614 110.526 6.28614C109.11 6.28614 107.776 6.24329 107.542 6.20044C107.047 6.10045 106.827 5.65765 106.827 4.78633C106.827 3.91501 107.047 3.47221 107.542 3.37222C107.776 3.32937 109.44 3.28652 111.255 3.28652C115.533 3.28652 115.629 3.22938 115.629 1.07251V0.00121403L111.338 0.0154972C108.271 0.0154972 106.868 0.0726328 106.483 0.201189ZM121.557 0.286892C121.158 0.429731 120.608 0.729694 120.346 0.943953C119.246 1.81527 118.256 4.1007 117.981 6.42898C117.774 8.05735 117.788 14.3994 117.981 14.9851C118.173 15.5421 118.723 15.8564 119.535 15.8564C120.03 15.8564 120.25 15.7707 120.608 15.4421L121.061 15.0279L121.103 13.4424L121.158 11.8569H128.117L128.172 13.4424L128.213 15.0279L128.667 15.4421C129.025 15.785 129.231 15.8564 129.795 15.8564C130.359 15.8564 130.565 15.785 130.922 15.4421L131.376 15.0279L131.363 10.5428C131.349 6.44327 131.335 5.98618 131.06 4.95774C130.441 2.60089 129.52 1.1725 128.186 0.486867C127.402 0.0869169 127.333 0.0726328 124.844 0.0440655C122.602 0.00121403 122.217 0.0297813 121.557 0.286892ZM127.058 3.85788C127.608 4.52922 128.021 5.95761 128.103 7.38601L128.186 8.57157H121.13V7.70025C121.13 5.88619 121.9 3.77217 122.671 3.42936C122.849 3.35794 123.812 3.31509 124.83 3.32937L126.659 3.35794L127.058 3.85788Z" fill="#D61E2F"/>
</g>
<defs>
<clipPath id="clip0_1285_637">
<rect width="131" height="16" fill="white" transform="translate(0.375977)"/>
</clipPath>
</defs>
</svg>
