<svg width="129" height="128" viewBox="0 0 129 128" fill="none" xmlns="http://www.w3.org/2000/svg">
<path d="M29.5635 63.0496H57.0472V70.2157L64.4993 79.3244L71.9505 70.2157V63.0496H99.4342V48.1463H71.9505V14.5644H57.0472V48.1463H29.5635V63.0496ZM33.2988 51.8816H60.7825V18.2997H68.2152V51.8816H95.6989V59.3143H68.2152V68.8821L64.4993 73.4258L60.7825 68.8821V59.3143H33.2988V51.8816Z" fill="#483524"/>
<path d="M40.3939 53.8961H44.1292V57.6314H40.3939V53.8961Z" fill="#483524"/>
<path d="M47.8645 53.8961H51.5999V57.6314H47.8645V53.8961Z" fill="#483524"/>
<path d="M55.3352 53.8961H59.0705V57.6314H55.3352V53.8961Z" fill="#483524"/>
<path d="M62.8058 53.8961H66.5411V57.6314H62.8058V53.8961Z" fill="#483524"/>
<path d="M62.8058 61.3667H66.5411V65.102H62.8058V61.3667Z" fill="#483524"/>
<path d="M62.8058 46.4255H66.5411V50.1608H62.8058V46.4255Z" fill="#483524"/>
<path d="M62.8058 38.9558H66.5411V42.6911H62.8058V38.9558Z" fill="#483524"/>
<path d="M62.8058 31.4852H66.5411V35.2205H62.8058V31.4852Z" fill="#483524"/>
<path d="M62.8058 24.0146H66.5411V27.7499H62.8058V24.0146Z" fill="#483524"/>
<path d="M70.2754 53.8961H74.0108V57.6314H70.2754V53.8961Z" fill="#483524"/>
<path d="M77.7461 53.8961H81.4814V57.6314H77.7461V53.8961Z" fill="#483524"/>
<path d="M85.2167 53.8961H88.952V57.6314H85.2167V53.8961Z" fill="#483524"/>
<path d="M125.9 86.3456C117.591 88.546 108.684 86.3515 102.349 80.6152L105.194 77.77L103.777 76.3537L108.424 71.705L100.084 63.3647L95.4363 68.0125L94.019 66.5952L78.39 82.2251L79.8063 83.6414L76.0516 87.3962C66.0654 97.3833 53.4636 104.112 39.6089 106.854L38.1041 107.153V127.608L40.8278 126.202C58.2475 117.207 74.1567 105.697 88.1417 91.9759L89.5648 93.399L92.3848 90.579L106.398 104.592C101.9 107.001 98.1288 106.778 95.7592 106.777L95.7573 118.772H97.6259C105.806 118.772 113.495 115.587 119.278 109.804C125.061 104.021 128.247 96.3318 128.247 88.151V85.725L125.9 86.3456ZM41.8384 121.448V110.204C55.8293 107.139 68.544 100.187 78.6935 90.0372L82.4483 86.2834L85.4998 89.3349C72.5205 102.065 57.8526 112.854 41.8384 121.448ZM100.084 68.6477L103.141 71.705L101.136 73.7117L98.0773 70.6535L100.084 68.6477ZM89.5648 88.117L83.672 82.2251L94.018 71.8781L99.9109 77.771L89.5648 88.117ZM116.637 107.163C112.002 111.798 105.972 114.533 99.4936 114.973V110.437C106.079 109.897 109.938 106.834 112.279 105.19L95.0258 87.937L99.7046 83.2592C106.365 89.367 115.549 92.0342 124.411 90.4924C123.872 96.7909 121.158 102.641 116.637 107.163Z" fill="#483524"/>
<path d="M22.6006 104.591L36.6129 90.579L39.4338 93.399L40.8569 91.9759C44.1049 95.1616 47.492 98.2607 50.9472 101.207L53.3712 98.3648C49.99 95.4826 46.6759 92.4505 43.4979 89.3349L46.5494 86.2824L50.3042 90.0372C52.9597 92.6928 55.841 95.1684 58.8672 97.395L61.0811 94.3863C58.2057 92.2716 55.4684 89.9195 52.9452 87.3962L49.1914 83.6414L50.6077 82.2242L34.9787 66.5952L33.5624 68.0125L28.9137 63.3647L20.5744 71.7059L25.2221 76.3537L23.8049 77.77L26.6501 80.6152C20.3147 86.3505 11.4063 88.547 3.09722 86.3456L0.751953 85.725V88.151C0.751953 96.3308 3.9367 104.02 9.71962 109.804C15.5035 115.587 23.193 118.772 31.3728 118.772H33.2404L33.2385 106.777C30.9058 106.778 27.1015 107.003 22.6006 104.591ZM39.4338 88.117L29.0868 77.77L34.9797 71.8781L45.3267 82.2251L39.4338 88.117ZM25.8564 71.7059L28.9146 68.6477L30.9214 70.6544L27.8631 73.7117L25.8564 71.7059ZM12.3606 107.163C7.83932 102.641 5.12635 96.7909 4.58648 90.4924C13.4501 92.0332 22.6337 89.367 29.294 83.2592L33.9719 87.937L16.7194 105.19C19.02 106.806 22.8837 109.894 29.5041 110.437L29.5051 114.973C23.0257 114.533 16.9967 111.798 12.3606 107.163Z" fill="#483524"/>
<path d="M78.4289 103.754L77.1264 107.255C80.3861 108.467 83.7537 109.456 87.1573 110.204V121.447C81.2246 118.261 75.4193 114.739 69.863 110.955L67.7599 114.041C74.288 118.488 81.1545 122.579 88.168 126.201L90.8926 127.607V107.152L89.3878 106.854C85.668 106.118 81.9804 105.074 78.4289 103.754Z" fill="#483524"/>
<path d="M37.7705 45.3526C39.3755 36.0794 45.8306 28.1828 54.6153 24.7451L53.2545 21.2666C43.2596 25.178 35.9164 34.1632 34.0896 44.7154L37.7705 45.3526Z" fill="#483524"/>
<path d="M91.2282 45.3526L94.9081 44.7154C93.0813 34.1632 85.7381 25.178 75.7442 21.2666L74.3833 24.7451C83.1681 28.1837 89.6222 36.0794 91.2282 45.3526Z" fill="#483524"/>
<path d="M31.7317 39.341L33.8552 36.2691C23.2008 28.9045 17.8254 16.4661 19.0637 4.22035C20.017 4.70088 20.7242 5.60358 20.9178 6.70666C22.7475 17.1383 30.3387 25.1293 39.712 28.0154L40.8112 24.4455C32.7268 21.9563 26.1754 15.0586 24.5967 6.06174C23.9916 2.61241 20.9956 0.109558 17.4733 0.109558H15.88L15.629 1.68345C13.3557 15.9623 19.3312 30.7702 31.7317 39.341Z" fill="#483524"/>
<path d="M108.08 6.70666C108.273 5.60261 108.981 4.70088 109.934 4.22035C111.173 16.47 105.795 28.9065 95.1425 36.2691L97.266 39.341C109.676 30.7634 115.641 15.9506 113.37 1.68345L113.119 0.109558H111.525C108.002 0.109558 105.006 2.61241 104.401 6.06174C102.827 15.0362 96.2913 21.9504 88.1874 24.4455L89.2857 28.0154C98.6521 25.1332 106.249 17.1461 108.08 6.70666Z" fill="#483524"/>
<path d="M84.6048 44.301C84.2206 42.9518 83.6973 41.6347 83.0475 40.3867L86.3606 38.663C87.1262 40.1348 87.7448 41.6873 88.1972 43.2767L84.6048 44.301ZM81.8841 38.4198C81.2508 37.4705 80.5359 36.5668 79.7567 35.7332L82.4862 33.1836C83.4035 34.1651 84.2459 35.2293 84.991 36.346L81.8841 38.4198ZM78.1079 34.1505C77.2422 33.4054 76.3103 32.7274 75.3376 32.136L77.2792 28.9444C78.426 29.6419 79.5242 30.4415 80.5446 31.3189L78.1079 34.1505Z" fill="#483524"/>
<path d="M95.2369 34.3626L93.0064 31.3665C94.1532 30.5125 95.2514 29.5631 96.2709 28.5436C97.7387 27.0748 99.0549 25.4426 100.182 23.6907L103.323 25.711C102.053 27.6867 100.568 29.5281 98.9119 31.1846C97.765 32.3315 96.5286 33.4005 95.2369 34.3626Z" fill="#483524"/>
<path d="M118.985 97.1508C114.028 97.0944 109.253 96.038 104.792 94.0128L106.337 90.6121C110.322 92.4214 114.592 93.3649 119.028 93.4155L118.985 97.1508Z" fill="#483524"/>
</svg>
