<svg width="25" height="25" viewBox="0 0 25 25" fill="none" xmlns="http://www.w3.org/2000/svg">
<path d="M1.20702 24.5994L12.1928 18.6891C12.4025 18.5762 12.6549 18.576 12.8649 18.6885L23.9015 24.6023C24.3747 24.8559 24.9475 24.513 24.9475 23.976L24.9475 18.7651C24.9475 18.5032 24.8035 18.2625 24.5726 18.1388L12.8649 11.8655C12.6549 11.753 12.4025 11.7532 12.1928 11.866L0.533824 18.1386C0.303555 18.2625 0.159989 18.5028 0.159989 18.7643L0.159988 23.9738C0.159988 24.5113 0.733681 24.8541 1.20702 24.5994Z" fill="url(#paint0_linear_2911_606)"/>
<path d="M1.20702 12.9479L12.1927 7.03754C12.4024 6.92466 12.6548 6.92445 12.8648 7.03697L23.9014 12.9507C24.3747 13.2043 24.9474 12.8614 24.9474 12.3245L24.9474 7.11349C24.9474 6.85161 24.8034 6.61094 24.5725 6.48725L12.8649 0.2139C12.6549 0.101384 12.4025 0.101594 12.1928 0.214465L0.533823 6.48704C0.303554 6.61094 0.159988 6.85125 0.159988 7.11271L0.159988 12.3223C0.159988 12.8597 0.733682 13.2025 1.20702 12.9479Z" fill="url(#paint1_linear_2911_606)"/>
<defs>
<linearGradient id="paint0_linear_2911_606" x1="12.5537" y1="24.6875" x2="12.5538" y2="0.129664" gradientUnits="userSpaceOnUse">
<stop stop-color="#FFC734"/>
<stop offset="1" stop-color="#FFE6A1"/>
</linearGradient>
<linearGradient id="paint1_linear_2911_606" x1="12.5537" y1="24.6875" x2="12.5538" y2="0.129664" gradientUnits="userSpaceOnUse">
<stop stop-color="#FFC734"/>
<stop offset="1" stop-color="#FFE6A1"/>
</linearGradient>
</defs>
</svg>
