<svg width="23" height="28" viewBox="0 0 23 28" fill="none" xmlns="http://www.w3.org/2000/svg">
<path fill-rule="evenodd" clip-rule="evenodd" d="M8.16821 1.95283L8.88212 11.0839H14.1624L11.3989 23.026L10.708 14.0448L4.98369 14.4889L2.84526 3.54971L0.849249 4.14851C0.518223 4.24781 0.291504 4.55254 0.291504 4.89818V16.4254C0.291504 17.9247 0.898506 19.4596 2.09555 20.9872C3.00979 22.1539 4.27467 23.3255 5.85492 24.4694C8.50965 26.3911 11.1238 27.5699 11.2338 27.6191C11.3355 27.6647 11.4445 27.6875 11.5536 27.6875C11.6626 27.6875 11.7717 27.6648 11.8734 27.6191C11.9833 27.5699 14.5974 26.3911 17.2521 24.4694C18.8324 23.3255 20.0972 22.1539 21.0115 20.9872C22.2086 19.4596 22.8154 17.9248 22.8154 16.4254V4.89818C22.8154 4.55254 22.5888 4.24781 22.2577 4.14851L11.7785 1.00471C11.6318 0.96067 11.4754 0.96067 11.3286 1.00471L8.16821 1.95283Z" fill="url(#paint0_linear_2911_619)"/>
<defs>
<linearGradient id="paint0_linear_2911_619" x1="11.5535" y1="0.97168" x2="11.5535" y2="27.6875" gradientUnits="userSpaceOnUse">
<stop stop-color="#FFC734"/>
<stop offset="1" stop-color="#FFE6A1"/>
</linearGradient>
</defs>
</svg>
