<svg width="31" height="30" viewBox="0 0 31 30" fill="none" xmlns="http://www.w3.org/2000/svg">
<path d="M14.0516 15.3474L25.0834 4.31557C25.4185 3.98051 25.9607 3.98051 26.2957 4.31557C26.6308 4.65063 26.6308 5.19285 26.2957 5.52785L15.2639 16.5597C15.4266 16.9009 15.521 17.2728 15.521 17.6617V21.1518L29.9326 6.74019C30.0936 6.5792 30.1836 6.36135 30.1836 6.13402V1.28484C30.1836 0.811312 29.8 0.427734 29.3265 0.427734H24.4773C24.25 0.427734 24.0322 0.517685 23.8711 0.678728L9.45957 15.0903H12.9497C13.3386 15.0902 13.7105 15.1847 14.0516 15.3474Z" fill="url(#paint0_linear_2911_615)"/>
<path d="M17.1927 23.117C16.8577 22.7819 16.3154 22.7819 15.9804 23.117L15.3743 23.7231L13.8068 22.1557V17.6617C13.8068 17.1882 13.4232 16.8046 12.9497 16.8046H8.4557L6.88825 15.2371L7.49442 14.631C7.82948 14.2959 7.82948 13.7537 7.49442 13.4187C7.15936 13.0836 6.61714 13.0836 6.28214 13.4187C6.10098 13.5998 3.68219 16.0186 3.85758 15.8432C3.52252 16.1783 3.52252 16.7205 3.85758 17.0555L13.5558 26.7539C13.8909 27.0889 14.4331 27.0889 14.7681 26.7539C14.926 26.596 17.376 24.1459 17.1927 24.3293C17.5277 23.9942 17.5277 23.452 17.1927 23.117Z" fill="url(#paint1_linear_2911_615)"/>
<path d="M6.28208 26.7539L8.70664 24.3293L6.28208 21.9047L3.85752 24.3293C3.18923 23.661 2.10125 23.661 1.43296 24.3293C1.10379 24.6584 0.923258 25.0887 0.923829 25.5415V27.9661C0.923258 28.4189 1.10379 28.8493 1.4329 29.1784C1.76202 29.5075 2.19234 29.688 2.64518 29.6874H5.06974C5.52258 29.688 5.95291 29.5075 6.28202 29.1784C6.95037 28.5101 6.95037 27.4222 6.28208 26.7539Z" fill="url(#paint2_linear_2911_615)"/>
<defs>
<linearGradient id="paint0_linear_2911_615" x1="15.5537" y1="0.427734" x2="15.5537" y2="29.6874" gradientUnits="userSpaceOnUse">
<stop stop-color="#FFC734"/>
<stop offset="1" stop-color="#FFE6A1"/>
</linearGradient>
<linearGradient id="paint1_linear_2911_615" x1="15.5537" y1="0.427734" x2="15.5537" y2="29.6874" gradientUnits="userSpaceOnUse">
<stop stop-color="#FFC734"/>
<stop offset="1" stop-color="#FFE6A1"/>
</linearGradient>
<linearGradient id="paint2_linear_2911_615" x1="15.5537" y1="0.427734" x2="15.5537" y2="29.6874" gradientUnits="userSpaceOnUse">
<stop stop-color="#FFC734"/>
<stop offset="1" stop-color="#FFE6A1"/>
</linearGradient>
</defs>
</svg>
