<svg width="33" height="25" viewBox="0 0 33 25" fill="none" xmlns="http://www.w3.org/2000/svg">
<path d="M28.9264 13.5075C31.0349 13.5075 32.7503 11.7921 32.7503 9.68352V7.85703H30.3269C29.5832 7.85703 28.864 8.07403 28.2477 8.47539C28.1792 8.09694 28.0927 7.7224 27.9876 7.35287L28.7173 6.93291C29.6018 6.42222 30.2346 5.59761 30.499 4.61098C30.7634 3.62434 30.6277 2.5938 30.117 1.70922L29.2037 0.127441L27.1049 1.33918C26.2767 1.81734 25.6621 2.58514 25.3743 3.5011C25.0909 4.40283 25.1475 5.37068 25.5333 6.22812L25.9639 7.25335C26.3465 8.32444 26.5407 9.45368 26.5407 10.6104C26.5407 16.1172 22.0607 20.5972 16.5539 20.5972C11.0471 20.5972 6.56706 16.1172 6.56706 10.6104C6.56706 9.45089 6.7611 8.3216 7.14354 7.25341L7.57407 6.22812C7.95987 5.37061 8.01636 4.40283 7.73306 3.5011C7.44526 2.58514 6.83063 1.81734 6.00241 1.33918L3.90356 0.127441L2.99038 1.70922C2.47964 2.5938 2.34399 3.62434 2.60832 4.61098C2.87264 5.59761 3.50543 6.42222 4.39116 6.93354L5.11954 7.35274C5.01445 7.72209 4.9279 8.09656 4.85951 8.47533C4.24318 8.07404 3.52403 7.85703 2.7804 7.85703H0.356934V9.68352C0.356934 11.7921 2.07239 13.5075 4.18225 13.5075L5.02654 13.5064C5.12087 13.8818 5.23323 14.2501 5.36242 14.6105C4.62625 14.5695 3.89357 14.7404 3.24901 15.1126L1.15029 16.3244L2.06353 17.9061C2.77098 19.1315 4.0585 19.8172 5.3814 19.8172C6.02994 19.8172 6.68727 19.6522 7.28842 19.3051L8.02522 18.8784C8.29315 19.1547 8.57437 19.418 8.86786 19.6674C8.2092 19.9997 7.65916 20.5151 7.28596 21.1614L6.07422 23.2602L7.656 24.1734C8.24526 24.5136 8.89911 24.6874 9.56183 24.6874C9.89397 24.6874 10.2284 24.6438 10.5578 24.5555C11.5444 24.2911 12.369 23.6584 12.8804 22.7726L13.3005 22.0425C14.3349 22.3373 15.4263 22.4952 16.5539 22.4952C17.6814 22.4952 18.7727 22.3374 19.8069 22.0427L20.2277 22.7738C20.9353 23.9992 22.2232 24.685 23.5458 24.685C24.1941 24.685 24.8508 24.5202 25.4514 24.1735L27.0332 23.2602L25.8214 21.1615C25.4484 20.5153 24.8984 20 24.2399 19.6676C24.5334 19.4181 24.8146 19.1548 25.0826 18.8785L25.8202 19.3059C26.421 19.6527 27.0774 19.8175 27.7258 19.8175C29.0483 19.8175 30.3364 19.1315 31.0439 17.9063L31.9571 16.3245L29.8584 15.1128C29.2139 14.7407 28.4814 14.5697 27.7454 14.6106C27.8746 14.2503 27.9869 13.8819 28.0812 13.5065L28.9264 13.5075Z" fill="url(#paint0_linear_2911_611)"/>
<path d="M16.5537 2.56369C12.1578 2.56369 8.58145 6.13999 8.58145 10.5359C8.58145 14.9318 12.1578 18.5081 16.5537 18.5081C20.9496 18.5081 24.5259 14.9318 24.5259 10.5359C24.5259 6.13999 20.9496 2.56369 16.5537 2.56369Z" fill="url(#paint1_linear_2911_611)"/>
<defs>
<linearGradient id="paint0_linear_2911_611" x1="16.5536" y1="0.127441" x2="16.5536" y2="24.6874" gradientUnits="userSpaceOnUse">
<stop stop-color="#FFC734"/>
<stop offset="1" stop-color="#FFE6A1"/>
</linearGradient>
<linearGradient id="paint1_linear_2911_611" x1="16.5536" y1="0.127441" x2="16.5536" y2="24.6874" gradientUnits="userSpaceOnUse">
<stop stop-color="#FFC734"/>
<stop offset="1" stop-color="#FFE6A1"/>
</linearGradient>
</defs>
</svg>
