<svg width="342" height="85" viewBox="0 0 342 85" fill="none" xmlns="http://www.w3.org/2000/svg">
<g filter="url(#filter0_d_1641_1316)">
<path d="M5.02208 13.0719C4.99425 13.0444 4.94702 13.0641 4.94702 13.1032V72.3306C4.94702 72.3697 4.99425 72.3894 5.02208 72.3619C5.03925 72.3449 5.06689 72.3449 5.08406 72.3619L11.9515 79.1568C12.8876 80.083 14.1513 80.6026 15.4682 80.6026H326.532C327.849 80.6026 329.113 80.083 330.049 79.1568L336.916 72.3619C336.933 72.3449 336.961 72.3449 336.978 72.3619C337.006 72.3894 337.053 72.3697 337.053 72.3306V13.1033C337.053 13.0641 337.006 13.0444 336.978 13.0719C336.961 13.0889 336.933 13.0889 336.916 13.0719L330.049 6.277C329.113 5.35077 327.849 4.83124 326.532 4.83124H15.4682C14.1513 4.83124 12.8876 5.35077 11.9515 6.277L5.08406 13.0719C5.06689 13.0889 5.03925 13.0889 5.02208 13.0719Z" fill="#FFC734"/>
</g>
<defs>
<filter id="filter0_d_1641_1316" x="0.947021" y="0.831238" width="340.106" height="83.7713" filterUnits="userSpaceOnUse" color-interpolation-filters="sRGB">
<feFlood flood-opacity="0" result="BackgroundImageFix"/>
<feColorMatrix in="SourceAlpha" type="matrix" values="0 0 0 0 0 0 0 0 0 0 0 0 0 0 0 0 0 0 127 0" result="hardAlpha"/>
<feOffset/>
<feGaussianBlur stdDeviation="2"/>
<feComposite in2="hardAlpha" operator="out"/>
<feColorMatrix type="matrix" values="0 0 0 0 1 0 0 0 0 0.48 0 0 0 0 0 0 0 0 1 0"/>
<feBlend mode="normal" in2="BackgroundImageFix" result="effect1_dropShadow_1641_1316"/>
<feBlend mode="normal" in="SourceGraphic" in2="effect1_dropShadow_1641_1316" result="shape"/>
</filter>
</defs>
</svg>
