<svg width="186" height="47" viewBox="0 0 186 47" fill="none" xmlns="http://www.w3.org/2000/svg">
<path d="M0 3C0 1.34315 1.34315 0 3 0H183C184.657 0 186 1.34315 186 3V44C186 45.6569 184.657 47 183 47H3C1.34314 47 0 45.6569 0 44V3Z" fill="white"/>
<path d="M62.4297 19.5977L59.7988 25.3574C59.3066 26.4355 58.8418 27.1699 58.4043 27.5605C57.9668 27.9512 57.4121 28.1465 56.7402 28.1465C56.2949 28.1465 55.9316 28.082 55.6504 27.9531V26.2246C55.9707 26.4316 56.3027 26.5352 56.6465 26.5352C57.1191 26.5352 57.5352 26.1523 57.8945 25.3867L55.1348 19.5977H57.291L58.6855 22.9609C58.7676 23.1641 58.832 23.3926 58.8789 23.6465H58.8906C58.9336 23.4355 59 23.2148 59.0898 22.9844L60.4375 19.5977H62.4297ZM69.1914 27.7012C68.5781 27.998 67.7773 28.1465 66.7891 28.1465C65.5 28.1465 64.4863 27.7676 63.748 27.0098C63.0098 26.252 62.6406 25.2422 62.6406 23.9805C62.6406 22.6367 63.0547 21.5469 63.8828 20.7109C64.7148 19.875 65.793 19.457 67.1172 19.457C67.9375 19.457 68.6289 19.5605 69.1914 19.7676V21.5898C68.6289 21.2539 67.9883 21.0859 67.2695 21.0859C66.4805 21.0859 65.8438 21.334 65.3594 21.8301C64.875 22.3262 64.6328 22.998 64.6328 23.8457C64.6328 24.6582 64.8613 25.3066 65.3184 25.791C65.7754 26.2715 66.3906 26.5117 67.1641 26.5117C67.9023 26.5117 68.5781 26.332 69.1914 25.9727V27.7012ZM76.5566 21.1387H74.1602V28H72.2617V21.1387H69.877V19.5977H76.5566V21.1387ZM84.3613 28H82.2988L81.7012 26.1309H78.7129L78.1211 28H76.0703L79.1289 19.5977H81.373L84.3613 28ZM81.2676 24.6777L80.3652 21.8535C80.2988 21.6426 80.252 21.3906 80.2246 21.0977H80.1777C80.1582 21.3438 80.1094 21.5879 80.0312 21.8301L79.1172 24.6777H81.2676ZM92.6816 28H90.7832V24.5781H87.3027V28H85.4102V19.5977H87.3027V22.9492H90.7832V19.5977H92.6816V28ZM98.1602 28.1465C96.957 28.1465 95.9766 27.7559 95.2188 26.9746C94.4609 26.1895 94.082 25.168 94.082 23.9102C94.082 22.582 94.4668 21.5078 95.2363 20.6875C96.0059 19.8672 97.0254 19.457 98.2949 19.457C99.4941 19.457 100.463 19.8496 101.201 20.6348C101.943 21.4199 102.314 22.4551 102.314 23.7402C102.314 25.0605 101.93 26.125 101.16 26.9336C100.395 27.7422 99.3945 28.1465 98.1602 28.1465ZM98.2422 21.0859C97.5781 21.0859 97.0508 21.3359 96.6602 21.8359C96.2695 22.332 96.0742 22.9902 96.0742 23.8105C96.0742 24.6426 96.2695 25.3008 96.6602 25.7852C97.0508 26.2695 97.5625 26.5117 98.1953 26.5117C98.8477 26.5117 99.3652 26.2773 99.748 25.8086C100.131 25.3359 100.322 24.6816 100.322 23.8457C100.322 22.9746 100.137 22.2969 99.7656 21.8125C99.3945 21.3281 98.8867 21.0859 98.2422 21.0859ZM103.715 28V19.5977H106.773C107.711 19.5977 108.432 19.7695 108.936 20.1133C109.439 20.457 109.691 20.9414 109.691 21.5664C109.691 22.0195 109.537 22.416 109.229 22.7559C108.924 23.0957 108.533 23.332 108.057 23.4648V23.4883C108.654 23.5625 109.131 23.7832 109.486 24.1504C109.846 24.5176 110.025 24.9648 110.025 25.4922C110.025 26.2617 109.75 26.873 109.199 27.3262C108.648 27.7754 107.896 28 106.943 28H103.715ZM105.607 20.9922V22.9844H106.439C106.83 22.9844 107.137 22.8906 107.359 22.7031C107.586 22.5117 107.699 22.25 107.699 21.918C107.699 21.3008 107.238 20.9922 106.316 20.9922H105.607ZM105.607 24.3906V26.6055H106.633C107.07 26.6055 107.412 26.5039 107.658 26.3008C107.908 26.0977 108.033 25.8203 108.033 25.4688C108.033 25.1328 107.91 24.8691 107.664 24.6777C107.422 24.4863 107.082 24.3906 106.645 24.3906H105.607ZM118.973 28H117.186V23.3828C117.186 22.8516 117.205 22.3984 117.244 22.0234H117.209C117.127 22.1836 116.986 22.416 116.787 22.7207L113.318 28H111.414V19.5977H113.201V24.2441C113.201 24.8184 113.186 25.2031 113.154 25.3984H113.178C113.197 25.3516 113.342 25.123 113.611 24.7129L116.945 19.5977H118.973V28ZM126.807 21.1387H124.41V28H122.512V21.1387H120.127V19.5977H126.807V21.1387ZM127.938 28V19.5977H129.83V22.7441H131.066C133.094 22.7441 134.107 23.5684 134.107 25.2168C134.107 26.0957 133.834 26.7793 133.287 27.2676C132.74 27.7559 131.969 28 130.973 28H127.938ZM129.83 24.1738V26.5586H130.686C131.639 26.5586 132.115 26.1543 132.115 25.3457C132.115 24.5645 131.65 24.1738 130.721 24.1738H129.83ZM146.002 28H144.104V24.5781H140.623V28H138.73V19.5977H140.623V22.9492H144.104V19.5977H146.002V28ZM155.318 28H153.256L152.658 26.1309H149.67L149.078 28H147.027L150.086 19.5977H152.33L155.318 28ZM152.225 24.6777L151.322 21.8535C151.256 21.6426 151.209 21.3906 151.182 21.0977H151.135C151.115 21.3438 151.066 21.5879 150.988 21.8301L150.074 24.6777H152.225ZM166.949 28H165.057V21.25H161.576V28H159.684V19.5977H166.949V28ZM175.855 28H173.465L171.016 24.3496C170.969 24.2793 170.895 24.125 170.793 23.8867H170.764V28H168.871V19.5977H170.764V23.5703H170.793C170.84 23.4609 170.918 23.3047 171.027 23.1016L173.348 19.5977H175.604L172.674 23.6055L175.855 28Z" fill="black"/>
<path d="M30.5336 9H18V21.5737H30.5336V9Z" fill="black"/>
<path d="M44.3686 9H31.835V21.5737H44.3686V9Z" fill="black"/>
<path d="M30.5336 22.8643H18V35.4378H30.5336V22.8643Z" fill="black"/>
<path d="M44.3686 22.8643H31.835V35.4378H44.3686V22.8643Z" fill="black"/>
</svg>
